<?xml version="1.0" encoding="UTF-8"?>
<!-- Created with Inkscape (http://www.inkscape.org/) -->
<svg width="512" height="512" version="1.1" viewBox="0 0 512 512" xmlns="http://www.w3.org/2000/svg">
 <defs>
  <clipPath id="cp1">
   <path d="m107.65 127h1442.8v164.07h-1442.8v-164.07z"/>
  </clipPath>
  <clipPath id="cp2">
   <path d="m107.65 127h1442.8v164.07h-1442.8v-164.07z"/>
  </clipPath>
 </defs>
 <g transform="matrix(.3119 0 0 .3119 -2.5789 208.8)">
  <g id="&lt;Clip Group&gt;" clip-path="url(#cp1)">
   <path id="&lt;Compound Path&gt;" class="shp0" d="m1057.2 236.71c0-29.89 24.05-53.62 52.53-53.55 10.97-0.32 21.96 3.08 31.01 11.62v-41.66h28.46v83.55c-0.09 24.13 7.99 24.2 15.97 25.11v26.09c-26.34 0.68-26.61-13.1-32.46-13.1-8.18 0.19-10.38 5.96-20.92 11.07-5.76 2.71-14.07 3.82-19.92 3.96-30.91 0-54.67-23.96-54.67-53.09zm28.31-0.59c0 15.81 12.8 28.61 28.58 28.61 15.74 0 28.5-12.8 28.5-28.61 0-15.71-12.76-28.5-28.5-28.5-15.78 0-28.58 12.79-28.58 28.5z" fill-rule="evenodd"/>
   <path class="shp0" d="m221.03 236.71c0 29.13-23.79 53.09-54.69 53.09-5.76-0.14-11.88-1.25-17.64-3.96-6.47-3.54-10.08-6.85-10.38 2.28h-30.66v-135h29.81v41.66c9.07-8.54 20.07-11.94 31.03-11.62 28.48 0 52.53 23.66 52.53 53.55zm-82.65 0.2c0 15.11 12.25 27.42 27.37 27.42 15.19 0 27.43-12.31 27.43-27.42 0-15.13-12.24-27.44-27.43-27.44-15.12 0-27.37 12.31-27.37 27.44z" fill-rule="evenodd"/>
   <path id="&lt;Path&gt;" class="shp0" d="m1390 185.41 0.14-34.16h29.41v32.47l20.16 0.08v25.01l-19.7-0.06-0.46 42.69c0.82 7.1 8.81 13.15 16.83 10.08v26.28c-10.41 2.22-20 0-28.77-5.43-11.71-6.68-15.06-18.53-15.75-31.35z"/>
   <path class="shp0" d="m898.1 185.42 0.07-34.17h29.42v32.33l18.17 0.07v25.34l-17.71-0.1-0.46 42.55c0.79 7.09 8.84 13.15 16.83 10.08v26.28c-10.41 2.22-20 0-28.71-5.43-11.72-6.68-16.03-18.17-16.69-31z"/>
   <path class="shp0" d="m428.24 196.18-43.1 37.06c6.32 12.24 19.39 29.98 37.07 29.98l0.08 24.97c-23.31 0-41.92-13.35-53.12-29.56v29.99h-30.71v-136.36h30.12l-0.24 60.03 43.87-35.48z"/>
   <path class="shp0" d="m672.17 287.87c-36.5 7.78-43.79-11.59-43.86-23.21v-111.02l28.81 0.75v99.47c0 8.44 7.62 11.28 15.05 7.92z"/>
  </g>
  <path class="shp0" d="m1031 146.96-33.32 26.28-3.23 0.69-9.6-10.05 31.82-36.16h1.66l12.67 17.7z"/>
  <g clip-path="url(#cp2)">
   <path class="shp0" d="m1056.4 288.55c-12.01 3.8-23.89-2.36-31.06-10.8-9.75 5.63-11.03 10.37-29.98 11.13-25.59 0-43.77-15.32-43.77-37.08 0-18.2 0.24-51.22 0.24-67.88l27.91 0.49v61.99c0.07 19.93 34.07 19.37 34.18 1.54l-0.79-63.53h28.79l0.04 71.18c3.15 4.68 8.05 6.87 14.44 6.19z"/>
   <path class="shp0" d="m282.06 175.5c-5.51-2.25-9.48-6.12-11.74-11.58l32.6-36.93 13.55 19.22z"/>
   <g fill-rule="evenodd">
    <path class="shp0" d="m1284 218.48-60.61 40.09c-2.25 1.68-1.49 2.52 2.28 2.52h54.43v26.7h-48.79c-50.24 0-69.75-71.77-21.38-97.39 32.67-15.49 62.26-0.56 74.07 28.08zm-38.32-4.69c-15.75-13.54-40.95 5.05-33.59 23.41l34.76-22.03z"/>
    <path class="shp0" d="m226.86 235.95c0-28.92 23.46-52.39 52.33-52.39 28.93 0 52.4 23.47 52.4 52.39 0 28.93-23.47 52.34-52.4 52.34-28.87 0-52.33-23.41-52.33-52.34zm25.46 0.07c0 14.82 11.98 26.87 26.8 26.87 14.83 0 26.84-12.05 26.84-26.87 0-14.86-12.01-26.83-26.84-26.83-14.82 0-26.8 11.97-26.8 26.83z"/>
    <path class="shp0" d="m624.36 263.84v25.17c-15.09 6.15-31.17-3.14-40.1-14.11-8.97 11.78-24.44 17.83-40.85 14.2-34.36-8.61-34.36-60.08 0-68.62-5.75-7.11-13.09-11.92-23.69-11.92v-24.83c15.52 0 30.9-1.75 56.5 31.57 15.7 19.77 20.28 53.29 48.14 48.54zm-82.62-8.31c0 6.93 5.63 12.6 12.6 12.6s12.64-5.67 12.64-12.6c0-6.98-5.67-12.67-12.64-12.67s-12.6 5.69-12.6 12.67z"/>
    <path class="shp0" d="m781.97 263.36 0.08 24.91c-25.92 0-31.16-2.21-40.13-13.27-8.97 11.78-24.48 17.87-40.85 14.24-34.36-8.65-34.36-60.09 0-68.63-5.79-7.04-13.87-11.14-23.73-11.92v-25.27c13.2 0 30.93-1.27 56.49 32.02 15.65 19.76 15.09 47.92 48.14 47.92zm-82.47-7.83c0 6.99 5.63 12.66 12.6 12.66s12.6-5.67 12.6-12.66c0-6.91-5.63-12.61-12.6-12.61s-12.6 5.7-12.6 12.61z"/>
    <path class="shp0" d="m1550.4 263.97-0.07 25.13c-15.03 6.13-31.09-3.04-40.03-14.1-8.96 11.78-24.51 17.87-40.84 14.24-34.33-8.65-34.33-60.09 0-68.63-5.76-7.04-12.59-11.66-23.7-11.66v-25.15c13.82 0 30.83-1.65 56.49 31.63 15.68 19.77 20.27 53.29 48.15 48.54zm-82.54-8.44c0 6.99 5.69 12.66 12.59 12.66 7.04 0 12.67-5.67 12.67-12.66 0-6.91-5.63-12.61-12.67-12.61-6.9 0-12.59 5.7-12.59 12.61z"/>
   </g>
   <path class="shp0" d="m892.22 184.9v24.12c-10.67 0-14.15 2.15-20.1 15.51-12.83 27.62-18.88 63.81-65.1 63.81l0.06-25.05c30.13 0 32.05-37.98 42.35-55.67 9.56-16.21 21.02-23.88 42.79-23.88z"/>
   <path class="shp0" d="m513.74 208.61c-9.53 0-15.69 6.68-20.43 15.13-12.78 27.67-19.88 64.47-65.07 64.47l-0.06-24.92c28.77 0 32.17-38.73 42.48-56.43 9.55-16.2 20.36-23.11 43.08-23.11z"/>
   <path class="shp0" d="m1370.6 287.8c-14.54-18.03-23.76-56.72-33.49-71.12-7.52-9.3-19.21-6.38-19.63 2.09v69.03h-28.87v-103l28.14 0.07c-0.29 3.82-0.71 7.52 2.4 6.05 12.56-7.5 29.06-4.62 37.27 9.2 10.15 18 29.27 70.4 41.08 87.68z"/>
  </g>
 </g>
 <style>tspan { white-space:pre }
		.shp0 { fill: #4e5056 }</style>
</svg>
