<svg version="1.2" baseProfile="tiny-ps" xmlns="http://www.w3.org/2000/svg" viewBox="0 0 1596 392" width="1596" height="392">
	<title>boksalastudenta Vektra format-ai</title>
	<defs>
		<clipPath clipPathUnits="userSpaceOnUse" id="cp1">
			<path d="M107.65 127L1550.44 127L1550.44 291.07L107.65 291.07L107.65 127Z" />
		</clipPath>
		<clipPath clipPathUnits="userSpaceOnUse" id="cp2">
			<path d="M107.65 127L1550.44 127L1550.44 291.07L107.65 291.07L107.65 127Z" />
		</clipPath>
	</defs>
	<style>
		tspan { white-space:pre }
		.shp0 { fill: #4e5056 } 
	</style>
	<g id="Layer 1">
		<g id="&lt;Clip Group&gt;" clip-path="url(#cp1)">
			<path id="&lt;Compound Path&gt;" fill-rule="evenodd" class="shp0" d="M1057.2 236.71C1057.2 206.82 1081.25 183.09 1109.73 183.16C1120.7 182.84 1131.69 186.24 1140.74 194.78L1140.74 153.12L1169.2 153.12L1169.2 236.67C1169.11 260.8 1177.19 260.87 1185.17 261.78L1185.17 287.87C1158.83 288.55 1158.56 274.77 1152.71 274.77C1144.53 274.96 1142.33 280.73 1131.79 285.84C1126.03 288.55 1117.72 289.66 1111.87 289.8C1080.96 289.8 1057.2 265.84 1057.2 236.71ZM1085.51 236.12C1085.51 251.93 1098.31 264.73 1114.09 264.73C1129.83 264.73 1142.59 251.93 1142.59 236.12C1142.59 220.41 1129.83 207.62 1114.09 207.62C1098.31 207.62 1085.51 220.41 1085.51 236.12Z" />
			<path id="&lt;Compound Path&gt;" fill-rule="evenodd" class="shp0" d="M221.03 236.71C221.03 265.84 197.24 289.8 166.34 289.8C160.58 289.66 154.46 288.55 148.7 285.84C142.23 282.3 138.62 278.99 138.32 288.12L107.66 288.12L107.66 153.12L137.47 153.12L137.47 194.78C146.54 186.24 157.54 182.84 168.5 183.16C196.98 183.16 221.03 206.82 221.03 236.71ZM138.38 236.91C138.38 252.02 150.63 264.33 165.75 264.33C180.94 264.33 193.18 252.02 193.18 236.91C193.18 221.78 180.94 209.47 165.75 209.47C150.63 209.47 138.38 221.78 138.38 236.91Z" />
			<path id="&lt;Path&gt;" class="shp0" d="M1389.96 185.41L1390.1 151.25L1419.51 151.25L1419.51 183.72L1439.67 183.8L1439.67 208.81L1419.97 208.75L1419.51 251.44C1420.33 258.54 1428.32 264.59 1436.34 261.52L1436.34 287.8C1425.93 290.02 1416.34 287.8 1407.57 282.37C1395.86 275.69 1392.51 263.84 1391.82 251.02L1389.96 185.41Z" />
			<path id="&lt;Path&gt;" class="shp0" d="M898.1 185.42L898.17 151.25L927.59 151.25L927.59 183.58L945.76 183.65L945.76 208.99L928.05 208.89L927.59 251.44C928.38 258.53 936.43 264.59 944.42 261.52L944.42 287.8C934.01 290.02 924.42 287.8 915.71 282.37C903.99 275.69 899.68 264.2 899.02 251.37L898.1 185.42Z" />
			<path id="&lt;Path&gt;" class="shp0" d="M428.24 196.18L385.14 233.24C391.46 245.48 404.53 263.22 422.21 263.22L422.29 288.19C398.98 288.19 380.37 274.84 369.17 258.63L369.17 288.62L338.46 288.62L338.46 152.26L368.58 152.26L368.34 212.29L412.21 176.81L428.24 196.18Z" />
			<path id="&lt;Path&gt;" class="shp0" d="M672.17 287.87C635.67 295.65 628.38 276.28 628.31 264.66L628.31 153.64L657.12 154.39L657.12 253.86C657.12 262.3 664.74 265.14 672.17 261.78L672.17 287.87Z" />
		</g>
		<path id="&lt;Path&gt;" class="shp0" d="M1031.02 146.96L997.7 173.24L994.47 173.93L984.87 163.88L1016.69 127.72L1018.35 127.72L1031.02 145.42L1031.02 146.96Z" />
		<g id="&lt;Clip Group&gt;" clip-path="url(#cp2)">
			<path id="&lt;Path&gt;" class="shp0" d="M1056.42 288.55C1044.41 292.35 1032.53 286.19 1025.36 277.75C1015.61 283.38 1014.33 288.12 995.38 288.88C969.79 288.88 951.61 273.56 951.61 251.8C951.61 233.6 951.85 200.58 951.85 183.92L979.76 184.41L979.76 246.4C979.83 266.33 1013.83 265.77 1013.94 247.94L1013.15 184.41L1041.94 184.41L1041.98 255.59C1045.13 260.27 1050.03 262.46 1056.42 261.78L1056.42 288.55Z" />
			<path id="&lt;Path&gt;" class="shp0" d="M282.06 175.5C276.55 173.25 272.58 169.38 270.32 163.92L302.92 126.99L316.47 146.21L282.06 175.5Z" />
			<path id="&lt;Compound Path&gt;" fill-rule="evenodd" class="shp0" d="M1283.95 218.48L1223.34 258.57C1221.09 260.25 1221.85 261.09 1225.62 261.09L1280.05 261.09L1280.05 287.79L1231.26 287.79C1181.02 287.79 1161.51 216.02 1209.88 190.4C1242.55 174.91 1272.14 189.84 1283.95 218.48ZM1245.63 213.79C1229.88 200.25 1204.68 218.84 1212.04 237.2L1246.8 215.17L1245.63 213.79Z" />
			<path id="&lt;Compound Path&gt;" fill-rule="evenodd" class="shp0" d="M226.86 235.95C226.86 207.03 250.32 183.56 279.19 183.56C308.12 183.56 331.59 207.03 331.59 235.95C331.59 264.88 308.12 288.29 279.19 288.29C250.32 288.29 226.86 264.88 226.86 235.95ZM252.32 236.02C252.32 250.84 264.3 262.89 279.12 262.89C293.95 262.89 305.96 250.84 305.96 236.02C305.96 221.16 293.95 209.19 279.12 209.19C264.3 209.19 252.32 221.16 252.32 236.02Z" />
			<path id="&lt;Compound Path&gt;" fill-rule="evenodd" class="shp0" d="M624.36 263.84L624.36 289.01C609.27 295.16 593.19 285.87 584.26 274.9C575.29 286.68 559.82 292.73 543.41 289.1C509.05 280.49 509.05 229.02 543.41 220.48C537.66 213.37 530.32 208.56 519.72 208.56L519.72 183.73C535.24 183.73 550.62 181.98 576.22 215.3C591.92 235.07 596.5 268.59 624.36 263.84ZM541.74 255.53C541.74 262.46 547.37 268.13 554.34 268.13C561.31 268.13 566.98 262.46 566.98 255.53C566.98 248.55 561.31 242.86 554.34 242.86C547.37 242.86 541.74 248.55 541.74 255.53Z" />
			<path id="&lt;Compound Path&gt;" fill-rule="evenodd" class="shp0" d="M781.97 263.36L782.05 288.27C756.13 288.27 750.89 286.06 741.92 275C732.95 286.78 717.44 292.87 701.07 289.24C666.71 280.59 666.71 229.15 701.07 220.61C695.28 213.57 687.2 209.47 677.34 208.69L677.34 183.42C690.54 183.42 708.27 182.15 733.83 215.44C749.48 235.2 748.92 263.36 781.97 263.36ZM699.5 255.53C699.5 262.52 705.13 268.19 712.1 268.19C719.07 268.19 724.7 262.52 724.7 255.53C724.7 248.62 719.07 242.92 712.1 242.92C705.13 242.92 699.5 248.62 699.5 255.53Z" />
			<path id="&lt;Compound Path&gt;" fill-rule="evenodd" class="shp0" d="M1550.44 263.97L1550.37 289.1C1535.34 295.23 1519.28 286.06 1510.34 275C1501.38 286.78 1485.83 292.87 1469.5 289.24C1435.17 280.59 1435.17 229.15 1469.5 220.61C1463.74 213.57 1456.91 208.95 1445.8 208.95L1445.8 183.8C1459.62 183.8 1476.63 182.15 1502.29 215.43C1517.97 235.2 1522.56 268.72 1550.44 263.97ZM1467.9 255.53C1467.9 262.52 1473.59 268.19 1480.49 268.19C1487.53 268.19 1493.16 262.52 1493.16 255.53C1493.16 248.62 1487.53 242.92 1480.49 242.92C1473.59 242.92 1467.9 248.62 1467.9 255.53Z" />
			<path id="&lt;Path&gt;" class="shp0" d="M892.22 184.9L892.22 209.02C881.55 209.02 878.07 211.17 872.12 224.53C859.29 252.15 853.24 288.34 807.02 288.34L807.08 263.29C837.21 263.29 839.13 225.31 849.43 207.62C858.99 191.41 870.45 183.74 892.22 183.74L892.22 184.9Z" />
			<path id="&lt;Path&gt;" class="shp0" d="M513.74 208.61C504.21 208.61 498.05 215.29 493.31 223.74C480.53 251.41 473.43 288.21 428.24 288.21L428.18 263.29C456.95 263.29 460.35 224.56 470.66 206.86C480.21 190.66 491.02 183.75 513.74 183.75L513.74 208.61Z" />
			<path id="&lt;Path&gt;" class="shp0" d="M1370.59 287.8C1356.05 269.77 1346.83 231.08 1337.1 216.68C1329.58 207.38 1317.89 210.3 1317.47 218.77L1317.47 287.8L1288.6 287.8L1288.6 184.8L1316.74 184.87C1316.45 188.69 1316.03 192.39 1319.14 190.92C1331.7 183.42 1348.2 186.3 1356.41 200.12C1366.56 218.12 1385.68 270.52 1397.49 287.8L1370.59 287.8Z" />
		</g>
	</g>
</svg>