<svg version="1.2" baseProfile="tiny-ps" xmlns="http://www.w3.org/2000/svg" viewBox="0 0 216 200" width="216" height="200">
	<title>Forlagid_Bokabud-pdf</title>
	<defs>
		<clipPath clipPathUnits="userSpaceOnUse" id="cp1">
			<path d="M-486 -247L705 -247L705 1437L-486 1437Z" />
		</clipPath>
	</defs>
	<style>
		tspan { white-space:pre }
		.shp0 { fill: #97231a } 
		.shp1 { fill: #cccccd } 
		.txt2 { font-size: 23px;fill: #97231a;font-weight: 600;font-family: "OpenSans-Semibold", "Open Sans" } 
		.txt3 { font-size: 24px;fill: #000000;font-family: "Myriad Pro" } 
		.shp4 { fill: #98231a } 
		.shp5 { fill: #adaeae } 
	</style>
	<g id="Page 1" clip-path="url(#cp1)">
		<path id="Path 1" fill-rule="evenodd" class="shp0" d="M49.75 143.94L54.61 143.94C56.86 143.94 58.49 144.27 59.49 144.93C60.49 145.58 61 146.62 61 148.04C61 148.99 60.75 149.79 60.26 150.42C59.77 151.06 59.06 151.46 58.13 151.62L58.13 151.73C59.28 151.95 60.12 152.37 60.67 153.01C61.21 153.65 61.48 154.51 61.48 155.6C61.48 157.07 60.96 158.22 59.94 159.05C58.91 159.89 57.49 160.3 55.66 160.3L49.75 160.3L49.75 143.94ZM52.43 150.7L55 150.7C56.12 150.7 56.93 150.53 57.45 150.17C57.96 149.82 58.22 149.21 58.22 148.37C58.22 147.6 57.94 147.04 57.39 146.7C56.83 146.35 55.95 146.18 54.74 146.18L52.43 146.18L52.43 150.7ZM52.43 152.87L52.43 158.05L55.27 158.05C56.39 158.05 57.23 157.84 57.8 157.41C58.37 156.98 58.66 156.3 58.66 155.38C58.66 154.53 58.37 153.9 57.78 153.49C57.2 153.08 56.32 152.87 55.13 152.87L52.43 152.87ZM81.69 152.1C81.69 154.76 81.03 156.83 79.7 158.31C78.36 159.79 76.48 160.53 74.04 160.53C71.57 160.53 69.67 159.79 68.35 158.33C67.03 156.86 66.36 154.78 66.36 152.08C66.36 149.38 67.03 147.3 68.36 145.86C69.7 144.41 71.59 143.69 74.06 143.69C76.49 143.69 78.37 144.42 79.7 145.89C81.03 147.36 81.69 149.43 81.69 152.1ZM69.21 152.1C69.21 154.12 69.61 155.64 70.43 156.68C71.24 157.72 72.45 158.24 74.04 158.24C75.63 158.24 76.83 157.73 77.64 156.7C78.45 155.67 78.85 154.14 78.85 152.1C78.85 150.1 78.45 148.57 77.65 147.54C76.85 146.5 75.65 145.98 74.06 145.98C72.46 145.98 71.25 146.5 70.43 147.54C69.61 148.57 69.21 150.1 69.21 152.1ZM72.36 142.64L72.36 142.36C72.79 141.83 73.23 141.25 73.68 140.61C74.13 139.97 74.48 139.42 74.74 138.97L77.8 138.97L77.8 139.2C77.41 139.65 76.83 140.24 76.06 140.96C75.29 141.68 74.64 142.24 74.11 142.64L72.36 142.64ZM99.98 160.3L96.88 160.3L91.75 152.9L90.17 154.18L90.17 160.3L87.5 160.3L87.5 143.94L90.17 143.94L90.17 151.75C90.9 150.86 91.63 150 92.35 149.17L96.77 143.94L99.81 143.94C96.96 147.3 94.91 149.69 93.67 151.12L99.98 160.3ZM114.58 160.3L112.95 155.76L106.69 155.76L105.09 160.3L102.27 160.3L108.39 143.88L111.3 143.88L117.42 160.3L114.58 160.3ZM112.24 153.45L110.71 149C110.6 148.7 110.44 148.23 110.24 147.59C110.05 146.95 109.91 146.48 109.84 146.18C109.64 147.1 109.34 148.1 108.95 149.19L107.48 153.45L112.24 153.45ZM121.87 143.94L126.73 143.94C128.98 143.94 130.61 144.27 131.61 144.93C132.61 145.58 133.12 146.62 133.12 148.04C133.12 148.99 132.87 149.79 132.38 150.42C131.89 151.06 131.17 151.46 130.25 151.62L130.25 151.73C131.4 151.95 132.24 152.37 132.78 153.01C133.33 153.65 133.6 154.51 133.6 155.6C133.6 157.07 133.08 158.22 132.06 159.05C131.03 159.89 129.6 160.3 127.78 160.3L121.87 160.3L121.87 143.94ZM124.55 150.7L127.12 150.7C128.24 150.7 129.05 150.53 129.57 150.17C130.08 149.82 130.34 149.21 130.34 148.37C130.34 147.6 130.06 147.04 129.51 146.7C128.95 146.35 128.07 146.18 126.86 146.18L124.55 146.18L124.55 150.7ZM124.55 152.87L124.55 158.05L127.39 158.05C128.51 158.05 129.35 157.84 129.92 157.41C130.49 156.98 130.78 156.3 130.78 155.38C130.78 154.53 130.49 153.9 129.9 153.49C129.32 153.08 128.44 152.87 127.25 152.87L124.55 152.87ZM152.11 143.94L152.11 154.53C152.11 155.74 151.85 156.8 151.33 157.7C150.82 158.61 150.07 159.3 149.09 159.79C148.1 160.28 146.93 160.53 145.57 160.53C143.54 160.53 141.96 159.99 140.83 158.91C139.71 157.84 139.15 156.36 139.15 154.48L139.15 143.94L141.83 143.94L141.83 154.29C141.83 155.64 142.14 156.64 142.77 157.28C143.4 157.92 144.36 158.24 145.66 158.24C148.18 158.24 149.44 156.92 149.44 154.27L149.44 143.94L152.11 143.94ZM143.84 142.64L143.84 142.36C144.27 141.83 144.71 141.25 145.16 140.61C145.61 139.97 145.97 139.42 146.23 138.97L149.28 138.97L149.28 139.2C148.89 139.65 148.31 140.24 147.54 140.96C146.77 141.68 146.12 142.24 145.59 142.64L143.84 142.64ZM171.8 151.97C171.8 154.65 171.05 156.71 169.55 158.15C168.05 159.59 165.89 160.3 163.07 160.3L158.59 160.3L158.59 153.33L156.95 153.33L156.95 151.09L158.59 151.09L158.59 143.94L163.57 143.94C166.16 143.94 168.18 144.65 169.63 146.05C171.07 147.46 171.8 149.43 171.8 151.97ZM168.98 152.06C168.98 150.12 168.51 148.65 167.59 147.66C166.66 146.67 165.28 146.18 163.46 146.18L161.26 146.18L161.26 151.09L164.69 151.09L164.69 153.33L161.26 153.33L161.26 158.05L163.05 158.05C167 158.05 168.98 156.05 168.98 152.06Z" />
		<path id="Path 2" class="shp1" d="M124.36 35.38C125.52 37.56 126.09 40.14 126.04 43.46C126.04 47.23 126.04 51.46 126.04 55.84C128.24 55.82 129.93 56.35 131.99 58C133.88 59.7 134.94 61.43 134.95 65.87C134.9 69 130.74 75.77 127.11 81.44L114.86 99.56L110.72 93.43C120.17 79.85 125.88 70.98 126.54 67C127.13 62.87 126.13 59.49 122.76 57.23C121.55 56.56 120.81 55.96 117.8 55.84C117.8 53.18 117.8 47.09 117.8 47.04C117.8 42.82 117.81 41.13 117.42 39.18C116.55 35.03 114.83 32.45 110.57 30.77C115.44 28.79 121.87 30.91 124.36 35.38Z" />
		<path id="Path 3" class="shp0" d="M106.69 77.15C106.68 71.02 106.68 69.52 106.69 64.55C110.47 64.53 112.98 67.7 112.97 70.84C112.98 74.74 109.67 77.14 106.69 77.15ZM106.67 64.55C103.68 64.56 100.37 66.96 100.39 70.86C100.37 74.01 102.88 77.17 106.67 77.16L106.68 77.16C106.68 85.11 106.68 91.27 106.68 99.62C100.27 89.3 92.04 79.35 87.18 68.44C86.14 65.57 86.51 61.88 88.21 59.45C90.39 56.83 92.07 56.07 95.14 55.82L95.54 55.82C95.54 51.81 95.54 46.73 95.55 42.15C95.84 37.32 97.21 33.04 102.36 30.92C103.86 30.28 105.36 30.03 106.68 30.04L106.68 64.51L106.67 64.55Z" />
		<path id="Path 4" fill-rule="evenodd" class="shp1" d="M38 128.32L38 114.43C37.66 112.71 37.83 111.51 36.28 110.48L45.89 110.48C46.4 110.48 47.95 110.48 48.29 110.31L48.29 114.43C47.26 112.71 43.66 112.54 40.92 113.22L40.92 118.88L44.35 118.88C44.86 118.88 46.23 118.88 46.4 118.71L46.4 122.31C45.72 121.11 42.97 121.11 40.92 121.46L40.92 128.32C40.92 129.69 41.09 131.06 42.63 131.58L35.94 131.58C37.66 130.89 37.66 129.35 38 128.32ZM77.45 129.01L77.45 113.22C77.45 110.48 76.6 110.48 75.91 109.97L82.94 109.97C87.4 109.97 90.66 111.51 90.66 115.28C90.66 118.71 87.92 120.78 85.52 121.12C88.95 125.23 90.65 129.69 94.43 131.58L91 131.58C89.63 131.58 88.59 130.89 87.05 129.17L81.4 120.78C85.52 119.06 87.4 118.37 87.06 115.63C87.06 113.05 84.83 111.85 81.06 112.54L81.06 128.83C81.06 130.21 81.4 131.06 82.6 131.58L75.91 131.58C76.94 131.41 77.45 130.38 77.45 129.01ZM96.97 128.15L96.97 113.05C96.97 111 96.46 111.17 95.77 110.31L102.12 110.31C101.6 110.83 100.4 111 100.4 113.23L100.4 128.84C104.77 129.32 105.49 129.76 109.66 127.29L107.94 131.58L95.43 131.58C97.14 130.38 96.97 129.01 96.97 128.15ZM131.62 121.12C132.65 111 141.74 108.94 150.32 110.82L150.32 114.6C144.83 109.97 135.05 113.57 135.74 121.46C136.42 130.89 146.2 130.72 149.12 129.35L149.12 124.55C149.12 122.83 148.94 121.8 147.57 120.94L152.72 120.94C152.55 121.46 152.55 121.8 152.55 123.17L152.55 129.87C152.55 130.38 152.55 130.89 152.72 131.41C144.14 133.81 131.79 132.1 131.62 121.12ZM157.44 128.83L157.44 113.22C157.44 112.03 157.27 111 155.9 110.31L162.24 110.31C161.21 111 160.7 111.85 160.7 113.57L160.7 128.83C160.7 129.86 161.9 131.41 162.76 131.58L155.72 131.58C156.41 131.41 157.44 130.38 157.44 128.83ZM167.07 128.32L167.07 121.88L167.05 121.89L164.72 121.97L164.72 119.55C164.72 119.55 165.83 119.58 167.05 119.61L167.07 119.6L167.07 113.22C167.07 111.17 166.38 111 165.52 110.31L173.41 110.31C181.65 110.31 185.93 115.8 185.59 120.94C185.42 126.09 182.16 132.1 173.24 131.58L165.52 131.58C166.89 130.89 167.07 129.86 167.07 128.32ZM170.5 129.01C173.24 130.21 181.3 129.01 181.82 121.97C182.33 111.85 173.24 113.05 170.5 113.22L170.5 119.64L170.55 119.65C172.16 119.6 174.4 119.55 174.4 119.55L174.4 121.97L170.51 121.83L170.5 121.85L170.5 129.01Z" />
		<path id="Path 5" fill-rule="evenodd" class="shp1" d="M62.03 109.97C68.55 109.97 73.69 114.08 73.87 120.94C73.87 125.75 70.44 132.27 62.54 132.27C54.48 132.27 50.54 127.64 50.02 121.46C50.02 116.83 52.94 109.97 62.03 109.97ZM62.54 129.87C67.18 129.87 70.44 125.58 70.09 121.12C69.92 116.83 66.84 112.37 61.69 112.37C57.91 112.37 53.8 115.28 54.14 121.12C54.14 126.44 58.09 129.87 62.54 129.87ZM111.97 128.15L117.94 113.53C118.52 111.17 118.01 110.83 117.32 110.31L122.29 110.31L130.01 128.66C130.87 130.21 131.73 130.72 132.59 131.58L125.73 131.58C127.78 130.72 126.75 129.35 126.41 128.66L124.35 123.52L116.46 123.52L114.41 129.01C114.06 130.72 114.75 130.89 115.61 131.58L109.26 131.58C110.93 130.41 111.71 128.88 111.97 128.15ZM117.32 121.12L123.5 121.12L120.41 113.23L117.32 121.12ZM120.22 566.86C121.39 569.04 121.96 571.63 121.9 574.94C121.9 578.71 121.9 582.94 121.91 587.32C124.1 587.31 125.8 587.83 127.85 589.49C129.75 591.18 130.8 592.91 130.81 597.35C130.77 600.48 126.6 607.25 122.97 612.92L110.72 631.05L106.59 624.91C116.04 611.33 121.75 602.46 122.41 598.48C123 594.35 121.99 590.97 118.63 588.71C117.41 588.05 116.67 587.45 113.66 587.32C113.66 584.66 113.66 578.57 113.66 578.52C113.66 574.3 113.68 572.61 113.28 570.67C112.41 566.52 110.69 563.93 106.44 562.26C111.3 560.27 117.73 562.39 120.22 566.86Z" />
		<path id="Path 6" class="shp0" d="M102.55 608.64C102.54 602.5 102.54 601 102.55 596.03C106.34 596.01 108.85 599.18 108.83 602.32C108.85 606.23 105.54 608.62 102.55 608.64ZM102.53 596.03C99.55 596.04 96.23 598.44 96.25 602.34C96.23 605.49 98.74 608.66 102.53 608.64L102.54 608.64C102.54 616.59 102.54 622.75 102.54 631.11C96.13 620.78 87.9 610.83 83.04 599.92C82.01 597.05 82.37 593.36 84.07 590.93C86.25 588.32 87.93 587.55 91 587.3L91.4 587.31C91.4 583.29 91.4 578.21 91.41 573.63C91.7 568.8 93.07 564.53 98.22 562.41C99.72 561.76 101.22 561.51 102.54 561.52L102.54 595.99L102.53 596.03Z" />
		<path id="Path 7" fill-rule="evenodd" class="shp1" d="M33.87 659.8L33.87 645.91C33.52 644.19 33.69 642.99 32.15 641.96L41.75 641.96C42.27 641.96 43.81 641.96 44.16 641.79L44.16 645.91C43.13 644.19 39.52 644.02 36.78 644.71L36.78 650.37L40.21 650.37C40.72 650.37 42.1 650.37 42.27 650.19L42.27 653.8C41.58 652.6 38.84 652.6 36.78 652.94L36.78 659.8C36.78 661.17 36.95 662.55 38.49 663.06L31.8 663.06C33.52 662.37 33.52 660.83 33.87 659.8ZM73.32 660.49L73.32 644.71C73.32 641.96 72.46 641.96 71.77 641.45L78.8 641.45C83.27 641.45 86.52 642.99 86.52 646.77C86.52 650.19 83.78 652.26 81.38 652.6C84.81 656.71 86.52 661.18 90.29 663.06L86.86 663.06C85.49 663.06 84.46 662.37 82.91 660.66L77.26 652.26C81.38 650.54 83.27 649.86 82.92 647.11C82.92 644.53 80.69 643.34 76.92 644.02L76.92 660.32C76.92 661.69 77.26 662.55 78.46 663.06L71.77 663.06C72.8 662.89 73.32 661.86 73.32 660.49ZM92.83 659.63L92.83 644.53C92.83 642.48 92.32 642.65 91.63 641.79L97.98 641.79C97.46 642.31 96.26 642.48 96.26 644.71L96.26 660.32C100.63 660.8 101.35 661.24 105.52 658.77L103.8 663.06L91.29 663.06C93 661.86 92.83 660.49 92.83 659.63ZM127.48 652.6C128.51 642.47 137.6 640.42 146.18 642.3L146.18 646.08C140.69 641.45 130.92 645.05 131.6 652.94C132.29 662.37 142.06 662.2 144.98 660.83L144.98 656.03C144.98 654.31 144.81 653.28 143.44 652.42L148.58 652.42C148.41 652.94 148.41 653.28 148.41 654.65L148.41 661.35C148.41 661.86 148.41 662.37 148.58 662.89C140.01 665.29 127.65 663.58 127.48 652.6ZM153.3 660.32L153.3 644.71C153.3 643.51 153.13 642.48 151.76 641.79L158.1 641.79C157.07 642.48 156.56 643.34 156.56 645.05L156.56 660.32C156.56 661.34 157.76 662.89 158.62 663.06L151.59 663.06C152.27 662.89 153.3 661.86 153.3 660.32ZM162.93 659.8L162.93 653.37L162.91 653.37L160.58 653.46L160.58 651.03C160.58 651.03 161.7 651.06 162.91 651.09L162.93 651.08L162.93 644.71C162.93 642.65 162.24 642.48 161.38 641.79L169.28 641.79C177.51 641.79 181.8 647.28 181.46 652.42C181.28 657.57 178.02 663.58 169.1 663.06L161.38 663.06C162.76 662.37 162.93 661.35 162.93 659.8ZM166.36 660.49C169.1 661.69 177.17 660.49 177.68 653.46C178.19 643.34 169.1 644.53 166.36 644.71L166.36 651.12L166.42 651.13C168.02 651.09 170.26 651.03 170.26 651.03L170.26 653.46L166.37 653.32L166.36 653.33L166.36 660.49Z" />
		<path id="Path 8" fill-rule="evenodd" class="shp1" d="M57.89 641.45C64.41 641.45 69.56 645.56 69.73 652.42C69.73 657.23 66.3 663.75 58.41 663.75C50.35 663.75 46.4 659.12 45.89 652.94C45.89 648.31 48.8 641.45 57.89 641.45ZM58.41 661.35C63.04 661.35 66.3 657.06 65.96 652.6C65.78 648.31 62.7 643.85 57.55 643.85C53.78 643.85 49.66 646.76 50 652.6C50 657.92 53.95 661.35 58.41 661.35ZM107.83 659.63L113.8 645.01C114.38 642.65 113.87 642.31 113.18 641.79L118.16 641.79L125.88 660.14C126.73 661.69 127.59 662.2 128.45 663.06L121.59 663.06C123.65 662.2 122.62 660.83 122.28 660.14L120.22 655L112.33 655L110.27 660.49C109.92 662.2 110.61 662.37 111.47 663.06L105.12 663.06C106.79 661.89 107.57 660.36 107.83 659.63ZM113.18 652.6L119.36 652.6L116.27 644.71L113.18 652.6Z" />
		<text id="BÓKABÚÐ" style="transform: matrix(1,0,0,1,43.954,691.803)" >
			<tspan x="0" y="0" class="txt2" dx="0 0 0 0 0 0 0 0" >BÓKABÚÐ
</tspan>
		</text>
		<text id="Fyrir skjá útlínur" style="transform: matrix(1,0,0,1,27.144,-82.587)" >
			<tspan x="0" y="0" class="txt3">Fyrir skjá útlínur
</tspan>
		</text>
		<text id="grár R 204 G 204 B 205" style="transform: matrix(1,0,0,1,-4.896,-53.787)" >
			<tspan x="0" y="0" class="txt3">grár R 204 G 204 B 205
</tspan>
		</text>
		<text id="rauður R 151 G 35 B 26" style="transform: matrix(1,0,0,1,-5.664,-24.987)" >
			<tspan x="0" y="0" class="txt3">rauður R 151 G 35 B 26
</tspan>
		</text>
		<path id="Path 13" fill-rule="evenodd" class="shp4" d="M50.55 1220.35L55.41 1220.35C57.66 1220.35 59.29 1220.68 60.29 1221.33C61.29 1221.99 61.79 1223.03 61.79 1224.44C61.79 1225.4 61.55 1226.19 61.06 1226.83C60.56 1227.46 59.85 1227.86 58.93 1228.02L58.93 1228.13C60.08 1228.35 60.92 1228.78 61.46 1229.42C62 1230.06 62.27 1230.92 62.27 1232.01C62.27 1233.48 61.76 1234.63 60.74 1235.46C59.71 1236.29 58.28 1236.7 56.46 1236.7L50.55 1236.7L50.55 1220.35ZM53.22 1227.11L55.8 1227.11C56.92 1227.11 57.73 1226.93 58.25 1226.57C58.76 1226.22 59.02 1225.62 59.02 1224.77C59.02 1224 58.74 1223.45 58.19 1223.1C57.63 1222.76 56.75 1222.59 55.54 1222.59L53.22 1222.59L53.22 1227.11ZM53.22 1229.28L53.22 1234.46L56.07 1234.46C57.18 1234.46 58.03 1234.24 58.6 1233.81C59.17 1233.38 59.46 1232.71 59.46 1231.78C59.46 1230.93 59.16 1230.3 58.58 1229.89C58 1229.48 57.12 1229.28 55.93 1229.28L53.22 1229.28ZM82.49 1228.5C82.49 1231.17 81.83 1233.23 80.49 1234.71C79.16 1236.19 77.28 1236.93 74.84 1236.93C72.37 1236.93 70.47 1236.2 69.15 1234.73C67.83 1233.27 67.16 1231.18 67.16 1228.48C67.16 1225.78 67.83 1223.71 69.16 1222.26C70.49 1220.81 72.39 1220.09 74.86 1220.09C77.29 1220.09 79.17 1220.83 80.5 1222.29C81.83 1223.77 82.49 1225.84 82.49 1228.5ZM70.01 1228.5C70.01 1230.52 70.41 1232.04 71.22 1233.09C72.04 1234.13 73.24 1234.64 74.84 1234.64C76.43 1234.64 77.62 1234.13 78.44 1233.1C79.24 1232.07 79.65 1230.54 79.65 1228.5C79.65 1226.5 79.25 1224.98 78.45 1223.94C77.65 1222.9 76.45 1222.38 74.86 1222.38C73.26 1222.38 72.05 1222.9 71.23 1223.94C70.41 1224.98 70.01 1226.5 70.01 1228.5ZM73.16 1219.04L73.16 1218.76C73.58 1218.24 74.02 1217.66 74.47 1217.02C74.92 1216.37 75.28 1215.82 75.54 1215.37L78.6 1215.37L78.6 1215.61C78.21 1216.06 77.63 1216.65 76.86 1217.37C76.09 1218.09 75.44 1218.64 74.9 1219.04L73.16 1219.04ZM100.78 1236.71L97.68 1236.71L92.55 1229.3L90.97 1230.58L90.97 1236.71L88.29 1236.71L88.29 1220.35L90.97 1220.35L90.97 1228.16C91.7 1227.26 92.43 1226.4 93.15 1225.57L97.57 1220.35L100.61 1220.35C97.75 1223.71 95.71 1226.09 94.47 1227.52L100.78 1236.71ZM115.38 1236.71L113.74 1232.16L107.49 1232.16L105.89 1236.71L103.07 1236.71L109.19 1220.28L112.1 1220.28L118.22 1236.71L115.38 1236.71ZM113.04 1229.85L111.51 1225.41C111.4 1225.1 111.24 1224.64 111.04 1224C110.84 1223.35 110.71 1222.89 110.63 1222.58C110.43 1223.5 110.14 1224.51 109.75 1225.59L108.27 1229.85L113.04 1229.85ZM122.67 1220.35L127.53 1220.35C129.78 1220.35 131.41 1220.68 132.41 1221.33C133.41 1221.99 133.91 1223.03 133.91 1224.44C133.91 1225.4 133.67 1226.19 133.18 1226.83C132.68 1227.46 131.97 1227.86 131.05 1228.02L131.05 1228.13C132.2 1228.35 133.04 1228.78 133.58 1229.42C134.12 1230.06 134.39 1230.92 134.39 1232.01C134.39 1233.48 133.88 1234.63 132.86 1235.46C131.83 1236.29 130.4 1236.7 128.58 1236.7L122.67 1236.7L122.67 1220.35ZM125.34 1227.11L127.92 1227.11C129.04 1227.11 129.85 1226.93 130.37 1226.57C130.88 1226.22 131.14 1225.62 131.14 1224.77C131.14 1224 130.86 1223.45 130.3 1223.1C129.75 1222.76 128.87 1222.59 127.66 1222.59L125.34 1222.59L125.34 1227.11ZM125.34 1229.28L125.34 1234.46L128.19 1234.46C129.3 1234.46 130.15 1234.24 130.72 1233.81C131.29 1233.38 131.57 1232.71 131.57 1231.78C131.57 1230.93 131.28 1230.3 130.7 1229.89C130.12 1229.48 129.24 1229.28 128.05 1229.28L125.34 1229.28ZM152.91 1220.35L152.91 1230.93C152.91 1232.14 152.65 1233.2 152.13 1234.11C151.62 1235.01 150.87 1235.71 149.88 1236.19C148.9 1236.68 147.73 1236.93 146.37 1236.93C144.34 1236.93 142.76 1236.39 141.63 1235.32C140.51 1234.24 139.94 1232.77 139.94 1230.89L139.94 1220.35L142.63 1220.35L142.63 1230.69C142.63 1232.05 142.94 1233.04 143.57 1233.68C144.19 1234.33 145.16 1234.64 146.45 1234.64C148.97 1234.64 150.24 1233.32 150.24 1230.68L150.24 1220.35L152.91 1220.35ZM144.64 1219.04L144.64 1218.76C145.07 1218.24 145.51 1217.66 145.95 1217.02C146.41 1216.37 146.76 1215.82 147.03 1215.37L150.08 1215.37L150.08 1215.61C149.69 1216.06 149.11 1216.65 148.34 1217.37C147.57 1218.09 146.92 1218.64 146.39 1219.04L144.64 1219.04ZM172.6 1228.37C172.6 1231.05 171.85 1233.12 170.35 1234.55C168.85 1235.99 166.69 1236.71 163.87 1236.71L159.38 1236.71L159.38 1229.73L157.75 1229.73L157.75 1227.5L159.38 1227.5L159.38 1220.35L164.37 1220.35C166.96 1220.35 168.98 1221.05 170.43 1222.46C171.87 1223.86 172.6 1225.83 172.6 1228.37ZM169.78 1228.46C169.78 1226.52 169.31 1225.05 168.38 1224.07C167.46 1223.08 166.08 1222.58 164.26 1222.58L162.06 1222.58L162.06 1227.5L165.49 1227.5L165.49 1229.73L162.06 1229.73L162.06 1234.46L163.85 1234.46C167.8 1234.46 169.78 1232.46 169.78 1228.46Z" />
		<path id="Path 14" class="shp5" d="M125.16 1111.79C126.32 1113.96 126.89 1116.55 126.84 1119.86C126.84 1123.63 126.84 1127.86 126.84 1132.24C129.04 1132.23 130.73 1132.75 132.79 1134.41C134.68 1136.1 135.74 1137.83 135.75 1142.28C135.7 1145.41 131.54 1152.17 127.91 1157.85L115.65 1175.97L111.52 1169.84C120.97 1156.26 126.68 1147.38 127.34 1143.4C127.93 1139.27 126.93 1135.89 123.56 1133.63C122.35 1132.97 121.61 1132.37 118.6 1132.24C118.6 1129.58 118.59 1123.49 118.59 1123.45C118.59 1119.23 118.61 1117.53 118.22 1115.59C117.34 1111.44 115.63 1108.85 111.37 1107.18C116.24 1105.19 122.66 1107.32 125.16 1111.79Z" />
		<path id="Path 15" class="shp4" d="M107.49 1153.56C107.47 1147.42 107.47 1145.92 107.49 1140.95C111.27 1140.93 113.78 1144.1 113.77 1147.24C113.78 1151.15 110.47 1153.54 107.49 1153.56ZM107.47 1140.95C104.48 1140.97 101.17 1143.36 101.18 1147.27C101.17 1150.41 103.68 1153.58 107.47 1153.56L107.47 1153.56C107.48 1161.52 107.48 1167.68 107.48 1176.03C101.06 1165.71 92.84 1155.75 87.97 1144.85C86.94 1141.97 87.31 1138.29 89 1135.85C91.18 1133.24 92.87 1132.48 95.93 1132.23L96.33 1132.23C96.34 1128.21 96.34 1123.14 96.34 1118.56C96.63 1113.72 98.01 1109.45 103.16 1107.33C104.66 1106.68 106.16 1106.43 107.47 1106.44L107.47 1140.91L107.47 1140.95Z" />
		<path id="Path 16" fill-rule="evenodd" class="shp5" d="M38.8 1204.72L38.8 1190.83C38.45 1189.12 38.63 1187.91 37.08 1186.88L46.69 1186.88C47.2 1186.88 48.75 1186.88 49.09 1186.71L49.09 1190.83C48.06 1189.12 44.46 1188.94 41.71 1189.63L41.71 1195.29L45.14 1195.29C45.66 1195.29 47.03 1195.29 47.2 1195.12L47.2 1198.72C46.52 1197.52 43.77 1197.52 41.71 1197.86L41.71 1204.72C41.71 1206.1 41.88 1207.47 43.43 1207.98L36.74 1207.98C38.45 1207.3 38.45 1205.75 38.8 1204.72ZM78.25 1205.41L78.25 1189.63C78.25 1186.88 77.39 1186.88 76.71 1186.37L83.74 1186.37C88.2 1186.37 91.46 1187.91 91.46 1191.69C91.46 1195.12 88.71 1197.18 86.31 1197.52C89.74 1201.64 91.45 1206.1 95.22 1207.98L91.79 1207.98C90.42 1207.98 89.39 1207.29 87.85 1205.58L82.2 1197.18C86.31 1195.46 88.2 1194.78 87.86 1192.03C87.86 1189.46 85.63 1188.26 81.85 1188.95L81.85 1205.24C81.85 1206.61 82.2 1207.47 83.4 1207.98L76.71 1207.98C77.74 1207.81 78.25 1206.78 78.25 1205.41ZM97.77 1204.55L97.77 1189.46C97.77 1187.4 97.25 1187.57 96.57 1186.71L102.91 1186.71C102.4 1187.23 101.2 1187.4 101.2 1189.63L101.2 1205.24C105.57 1205.73 106.29 1206.16 110.45 1203.69L108.74 1207.98L96.22 1207.98C97.94 1206.78 97.77 1205.41 97.77 1204.55ZM132.42 1197.52C133.45 1187.4 142.54 1185.34 151.11 1187.23L151.11 1191C145.63 1186.37 135.85 1189.97 136.54 1197.86C137.22 1207.3 147 1207.12 149.91 1205.75L149.91 1200.95C149.91 1199.23 149.74 1198.21 148.37 1197.35L153.52 1197.35C153.35 1197.86 153.35 1198.21 153.35 1199.58L153.35 1206.27C153.35 1206.78 153.35 1207.3 153.52 1207.81C144.94 1210.21 132.59 1208.5 132.42 1197.52ZM158.24 1205.24L158.24 1189.63C158.24 1188.43 158.07 1187.4 156.69 1186.71L163.04 1186.71C162.01 1187.4 161.5 1188.26 161.5 1189.97L161.5 1205.24C161.5 1206.27 162.7 1207.81 163.55 1207.98L156.52 1207.98C157.21 1207.81 158.24 1206.78 158.24 1205.24ZM167.86 1204.72L167.86 1198.29L167.85 1198.29L165.51 1198.38L165.51 1195.96C165.51 1195.96 166.63 1195.98 167.85 1196.01L167.86 1196L167.86 1189.63C167.86 1187.57 167.18 1187.4 166.32 1186.71L174.21 1186.71C182.44 1186.71 186.73 1192.2 186.39 1197.35C186.22 1202.5 182.96 1208.5 174.04 1207.98L166.32 1207.98C167.69 1207.3 167.86 1206.27 167.86 1204.72ZM171.29 1205.41C174.04 1206.61 182.1 1205.41 182.62 1198.38C183.13 1188.26 174.04 1189.46 171.29 1189.63L171.29 1196.04L171.35 1196.05C172.96 1196.01 175.2 1195.96 175.2 1195.96L175.2 1198.38L171.31 1198.24L171.29 1198.25L171.29 1205.41Z" />
		<path id="Path 17" fill-rule="evenodd" class="shp5" d="M62.83 1186.37C69.35 1186.37 74.49 1190.49 74.66 1197.35C74.66 1202.15 71.23 1208.67 63.34 1208.67C55.28 1208.67 51.34 1204.04 50.82 1197.86C50.82 1193.23 53.74 1186.37 62.83 1186.37ZM63.34 1206.27C67.97 1206.27 71.23 1201.98 70.89 1197.52C70.72 1193.23 67.63 1188.77 62.49 1188.77C58.71 1188.77 54.6 1191.69 54.94 1197.52C54.94 1202.84 58.88 1206.27 63.34 1206.27ZM112.77 1204.55L118.73 1189.93C119.32 1187.57 118.81 1187.23 118.12 1186.71L123.09 1186.71L130.81 1205.07C131.67 1206.61 132.53 1207.12 133.39 1207.98L126.52 1207.98C128.58 1207.12 127.55 1205.75 127.21 1205.07L125.15 1199.92L117.26 1199.92L115.2 1205.41C114.86 1207.12 115.55 1207.3 116.4 1207.98L110.06 1207.98C111.73 1206.82 112.5 1205.28 112.77 1204.55ZM118.12 1197.52L124.29 1197.52L121.21 1189.63L118.12 1197.52Z" />
		<text id="Fyrir prent CMYK útlínur" style="transform: matrix(1,0,0,1,-12.27,991.654)" >
			<tspan x="0" y="0" class="txt3">Fyrir prent CMYK útlínur
</tspan>
		</text>
		<text id="grár 40% svart" style="transform: matrix(1,0,0,1,35.922,1020.454)" >
			<tspan x="0" y="0" class="txt3">grár 40% svart
</tspan>
		</text>
		<text id="rauður 0/100/96/28" style="transform: matrix(1,0,0,1,10.05,1049.254)" >
			<tspan x="0" y="0" class="txt3">rauður 0/100/96/28
</tspan>
		</text>
		<text id="Fyrir skjá með font" style="transform: matrix(1,0,0,1,10.842,454.798)" >
			<tspan x="0" y="0" class="txt3">Fyrir skjá með font
</tspan>
		</text>
		<text id="grár R 204 G 204 B 205" style="transform: matrix(1,0,0,1,-9.054,483.598)" >
			<tspan x="0" y="0" class="txt3">grár R 204 G 204 B 205
</tspan>
		</text>
		<text id="rauður R 151 G 35 B 26" style="transform: matrix(1,0,0,1,-9.822,512.398)" >
			<tspan x="0" y="0" class="txt3">rauður R 151 G 35 B 26
</tspan>
		</text>
		<path id="Path 24" fill-rule="evenodd" class="shp4" d="M49.75 143.94L54.61 143.94C56.86 143.94 58.49 144.27 59.49 144.93C60.49 145.58 61 146.62 61 148.04C61 148.99 60.75 149.79 60.26 150.42C59.77 151.06 59.06 151.46 58.13 151.62L58.13 151.73C59.28 151.95 60.12 152.37 60.67 153.01C61.21 153.65 61.48 154.51 61.48 155.6C61.48 157.07 60.96 158.22 59.94 159.05C58.91 159.89 57.49 160.3 55.66 160.3L49.75 160.3L49.75 143.94ZM52.43 150.7L55 150.7C56.12 150.7 56.93 150.53 57.45 150.17C57.96 149.82 58.22 149.21 58.22 148.37C58.22 147.6 57.94 147.04 57.39 146.7C56.83 146.35 55.95 146.18 54.74 146.18L52.43 146.18L52.43 150.7ZM52.43 152.87L52.43 158.05L55.27 158.05C56.39 158.05 57.23 157.84 57.8 157.41C58.37 156.98 58.66 156.3 58.66 155.38C58.66 154.53 58.37 153.9 57.78 153.49C57.2 153.08 56.32 152.87 55.13 152.87L52.43 152.87ZM81.69 152.1C81.69 154.76 81.03 156.83 79.7 158.31C78.36 159.79 76.48 160.53 74.04 160.53C71.57 160.53 69.67 159.79 68.35 158.33C67.03 156.86 66.36 154.78 66.36 152.08C66.36 149.38 67.03 147.3 68.36 145.86C69.7 144.41 71.59 143.69 74.06 143.69C76.49 143.69 78.37 144.42 79.7 145.89C81.03 147.36 81.69 149.43 81.69 152.1ZM69.21 152.1C69.21 154.12 69.61 155.64 70.43 156.68C71.24 157.72 72.45 158.24 74.04 158.24C75.63 158.24 76.83 157.73 77.64 156.7C78.45 155.67 78.85 154.14 78.85 152.1C78.85 150.1 78.45 148.57 77.65 147.54C76.85 146.5 75.65 145.98 74.06 145.98C72.46 145.98 71.25 146.5 70.43 147.54C69.61 148.57 69.21 150.1 69.21 152.1ZM72.36 142.64L72.36 142.36C72.79 141.83 73.23 141.25 73.68 140.61C74.13 139.97 74.48 139.42 74.74 138.97L77.8 138.97L77.8 139.2C77.41 139.65 76.83 140.24 76.06 140.96C75.29 141.68 74.64 142.24 74.11 142.64L72.36 142.64ZM99.98 160.3L96.88 160.3L91.75 152.9L90.17 154.18L90.17 160.3L87.5 160.3L87.5 143.94L90.17 143.94L90.17 151.75C90.9 150.86 91.63 150 92.35 149.17L96.77 143.94L99.81 143.94C96.96 147.3 94.91 149.69 93.67 151.12L99.98 160.3ZM114.58 160.3L112.95 155.76L106.69 155.76L105.09 160.3L102.27 160.3L108.39 143.88L111.3 143.88L117.42 160.3L114.58 160.3ZM112.24 153.45L110.71 149C110.6 148.7 110.44 148.23 110.24 147.59C110.05 146.95 109.91 146.48 109.84 146.18C109.64 147.1 109.34 148.1 108.95 149.19L107.48 153.45L112.24 153.45ZM121.87 143.94L126.73 143.94C128.98 143.94 130.61 144.27 131.61 144.93C132.61 145.58 133.12 146.62 133.12 148.04C133.12 148.99 132.87 149.79 132.38 150.42C131.89 151.06 131.17 151.46 130.25 151.62L130.25 151.73C131.4 151.95 132.24 152.37 132.78 153.01C133.33 153.65 133.6 154.51 133.6 155.6C133.6 157.07 133.08 158.22 132.06 159.05C131.03 159.89 129.6 160.3 127.78 160.3L121.87 160.3L121.87 143.94ZM124.55 150.7L127.12 150.7C128.24 150.7 129.05 150.53 129.57 150.17C130.08 149.82 130.34 149.21 130.34 148.37C130.34 147.6 130.06 147.04 129.51 146.7C128.95 146.35 128.07 146.18 126.86 146.18L124.55 146.18L124.55 150.7ZM124.55 152.87L124.55 158.05L127.39 158.05C128.51 158.05 129.35 157.84 129.92 157.41C130.49 156.98 130.78 156.3 130.78 155.38C130.78 154.53 130.49 153.9 129.9 153.49C129.32 153.08 128.44 152.87 127.25 152.87L124.55 152.87ZM152.11 143.94L152.11 154.53C152.11 155.74 151.85 156.8 151.33 157.7C150.82 158.61 150.07 159.3 149.09 159.79C148.1 160.28 146.93 160.53 145.57 160.53C143.54 160.53 141.96 159.99 140.83 158.91C139.71 157.84 139.15 156.36 139.15 154.48L139.15 143.94L141.83 143.94L141.83 154.29C141.83 155.64 142.14 156.64 142.77 157.28C143.4 157.92 144.36 158.24 145.66 158.24C148.18 158.24 149.44 156.92 149.44 154.27L149.44 143.94L152.11 143.94ZM143.84 142.64L143.84 142.36C144.27 141.83 144.71 141.25 145.16 140.61C145.61 139.97 145.97 139.42 146.23 138.97L149.28 138.97L149.28 139.2C148.89 139.65 148.31 140.24 147.54 140.96C146.77 141.68 146.12 142.24 145.59 142.64L143.84 142.64ZM171.8 151.97C171.8 154.65 171.05 156.71 169.55 158.15C168.05 159.59 165.89 160.3 163.07 160.3L158.59 160.3L158.59 153.33L156.95 153.33L156.95 151.09L158.59 151.09L158.59 143.94L163.57 143.94C166.16 143.94 168.18 144.65 169.63 146.05C171.07 147.46 171.8 149.43 171.8 151.97ZM168.98 152.06C168.98 150.12 168.51 148.65 167.59 147.66C166.66 146.67 165.28 146.18 163.46 146.18L161.26 146.18L161.26 151.09L164.69 151.09L164.69 153.33L161.26 153.33L161.26 158.05L163.05 158.05C167 158.05 168.98 156.05 168.98 152.06Z" />
		<path id="Path 25" class="shp5" d="M124.36 35.38C125.52 37.56 126.09 40.14 126.04 43.46C126.04 47.23 126.04 51.46 126.04 55.84C128.24 55.82 129.93 56.35 131.99 58C133.88 59.7 134.94 61.43 134.95 65.87C134.9 69 130.74 75.77 127.11 81.44L114.86 99.56L110.72 93.43C120.17 79.85 125.88 70.98 126.54 67C127.13 62.87 126.13 59.49 122.76 57.23C121.55 56.56 120.81 55.96 117.8 55.84C117.8 53.18 117.8 47.09 117.8 47.04C117.8 42.82 117.81 41.13 117.42 39.18C116.55 35.03 114.83 32.45 110.57 30.77C115.44 28.79 121.87 30.91 124.36 35.38Z" />
		<path id="Path 26" class="shp4" d="M106.69 77.15C106.68 71.02 106.68 69.52 106.69 64.55C110.47 64.53 112.98 67.7 112.97 70.84C112.98 74.74 109.67 77.14 106.69 77.15ZM106.67 64.55C103.68 64.56 100.37 66.96 100.39 70.86C100.37 74.01 102.88 77.17 106.67 77.16L106.68 77.16C106.68 85.11 106.68 91.27 106.68 99.62C100.27 89.3 92.04 79.35 87.18 68.44C86.14 65.57 86.51 61.88 88.21 59.45C90.39 56.83 92.07 56.07 95.14 55.82L95.54 55.82C95.54 51.81 95.54 46.73 95.55 42.15C95.84 37.32 97.21 33.04 102.36 30.92C103.86 30.28 105.36 30.03 106.68 30.04L106.68 64.51L106.67 64.55Z" />
		<path id="Path 27" fill-rule="evenodd" class="shp5" d="M38 128.32L38 114.43C37.66 112.71 37.83 111.51 36.28 110.48L45.89 110.48C46.4 110.48 47.95 110.48 48.29 110.31L48.29 114.43C47.26 112.71 43.66 112.54 40.92 113.22L40.92 118.88L44.35 118.88C44.86 118.88 46.23 118.88 46.4 118.71L46.4 122.31C45.72 121.11 42.97 121.11 40.92 121.46L40.92 128.32C40.92 129.69 41.09 131.06 42.63 131.58L35.94 131.58C37.66 130.89 37.66 129.35 38 128.32ZM77.45 129.01L77.45 113.22C77.45 110.48 76.6 110.48 75.91 109.97L82.94 109.97C87.4 109.97 90.66 111.51 90.66 115.28C90.66 118.71 87.92 120.78 85.52 121.12C88.95 125.23 90.65 129.69 94.43 131.58L91 131.58C89.63 131.58 88.59 130.89 87.05 129.17L81.4 120.78C85.52 119.06 87.4 118.37 87.06 115.63C87.06 113.05 84.83 111.85 81.06 112.54L81.06 128.83C81.06 130.21 81.4 131.06 82.6 131.58L75.91 131.58C76.94 131.41 77.45 130.38 77.45 129.01ZM96.97 128.15L96.97 113.05C96.97 111 96.46 111.17 95.77 110.31L102.12 110.31C101.6 110.83 100.4 111 100.4 113.23L100.4 128.84C104.77 129.32 105.49 129.76 109.66 127.29L107.94 131.58L95.43 131.58C97.14 130.38 96.97 129.01 96.97 128.15ZM131.62 121.12C132.65 111 141.74 108.94 150.32 110.82L150.32 114.6C144.83 109.97 135.05 113.57 135.74 121.46C136.42 130.89 146.2 130.72 149.12 129.35L149.12 124.55C149.12 122.83 148.94 121.8 147.57 120.94L152.72 120.94C152.55 121.46 152.55 121.8 152.55 123.17L152.55 129.87C152.55 130.38 152.55 130.89 152.72 131.41C144.14 133.81 131.79 132.1 131.62 121.12ZM157.44 128.83L157.44 113.22C157.44 112.03 157.27 111 155.9 110.31L162.24 110.31C161.21 111 160.7 111.85 160.7 113.57L160.7 128.83C160.7 129.86 161.9 131.41 162.76 131.58L155.72 131.58C156.41 131.41 157.44 130.38 157.44 128.83ZM167.07 128.32L167.07 121.88L167.05 121.89L164.72 121.97L164.72 119.55C164.72 119.55 165.83 119.58 167.05 119.61L167.07 119.6L167.07 113.22C167.07 111.17 166.38 111 165.52 110.31L173.41 110.31C181.65 110.31 185.93 115.8 185.59 120.94C185.42 126.09 182.16 132.1 173.24 131.58L165.52 131.58C166.89 130.89 167.07 129.86 167.07 128.32ZM170.5 129.01C173.24 130.21 181.3 129.01 181.82 121.97C182.33 111.85 173.24 113.05 170.5 113.22L170.5 119.64L170.55 119.65C172.16 119.6 174.4 119.55 174.4 119.55L174.4 121.97L170.51 121.83L170.5 121.85L170.5 129.01Z" />
		<path id="Path 28" fill-rule="evenodd" class="shp5" d="M62.03 109.97C68.55 109.97 73.69 114.08 73.87 120.94C73.87 125.75 70.44 132.27 62.54 132.27C54.48 132.27 50.54 127.64 50.02 121.46C50.02 116.83 52.94 109.97 62.03 109.97ZM62.54 129.87C67.18 129.87 70.44 125.58 70.09 121.12C69.92 116.83 66.84 112.37 61.69 112.37C57.91 112.37 53.8 115.28 54.14 121.12C54.14 126.44 58.09 129.87 62.54 129.87ZM111.97 128.15L117.94 113.53C118.52 111.17 118.01 110.83 117.32 110.31L122.29 110.31L130.01 128.66C130.87 130.21 131.73 130.72 132.59 131.58L125.73 131.58C127.78 130.72 126.75 129.35 126.41 128.66L124.35 123.52L116.46 123.52L114.41 129.01C114.06 130.72 114.75 130.89 115.61 131.58L109.26 131.58C110.93 130.41 111.71 128.88 111.97 128.15ZM117.32 121.12L123.5 121.12L120.41 113.23L117.32 121.12Z" />
		<path id="Path 29" fill-rule="evenodd" class="shp4" d="M45.62 675.47L50.47 675.47C52.72 675.47 54.35 675.79 55.35 676.45C56.36 677.11 56.86 678.15 56.86 679.56C56.86 680.52 56.61 681.31 56.12 681.95C55.63 682.58 54.92 682.98 54 683.14L54 683.25C55.14 683.47 55.99 683.9 56.53 684.54C57.07 685.17 57.34 686.04 57.34 687.13C57.34 688.6 56.83 689.74 55.8 690.58C54.78 691.41 53.35 691.82 51.52 691.82L45.62 691.82L45.62 675.47ZM48.29 682.22L50.86 682.22C51.98 682.22 52.8 682.05 53.31 681.69C53.83 681.34 54.09 680.74 54.09 679.89C54.09 679.12 53.81 678.56 53.25 678.22C52.7 677.88 51.81 677.7 50.61 677.7L48.29 677.7L48.29 682.22ZM48.29 684.4L48.29 689.58L51.13 689.58C52.25 689.58 53.09 689.36 53.67 688.93C54.24 688.5 54.52 687.83 54.52 686.9C54.52 686.05 54.23 685.42 53.65 685.01C53.07 684.6 52.18 684.4 51 684.4L48.29 684.4ZM77.55 683.62C77.55 686.29 76.89 688.35 75.56 689.83C74.23 691.31 72.34 692.05 69.9 692.05C67.43 692.05 65.54 691.31 64.21 689.85C62.89 688.38 62.23 686.3 62.23 683.6C62.23 680.9 62.89 678.83 64.23 677.38C65.56 675.93 67.46 675.21 69.92 675.21C72.36 675.21 74.23 675.95 75.56 677.41C76.89 678.88 77.55 680.95 77.55 683.62ZM65.07 683.62C65.07 685.64 65.48 687.16 66.29 688.2C67.1 689.24 68.31 689.76 69.9 689.76C71.49 689.76 72.69 689.25 73.5 688.22C74.31 687.19 74.71 685.66 74.71 683.62C74.71 681.62 74.31 680.09 73.51 679.06C72.71 678.02 71.51 677.5 69.92 677.5C68.32 677.5 67.11 678.02 66.3 679.06C65.48 680.09 65.07 681.62 65.07 683.62ZM68.23 674.16L68.23 673.88C68.65 673.36 69.09 672.77 69.54 672.13C69.99 671.49 70.35 670.94 70.61 670.49L73.66 670.49L73.66 670.72C73.27 671.18 72.69 671.77 71.92 672.49C71.15 673.2 70.5 673.76 69.97 674.16L68.23 674.16ZM95.84 691.82L92.74 691.82L87.61 684.42L86.03 685.7L86.03 691.82L83.36 691.82L83.36 675.46L86.03 675.46L86.03 683.27C86.76 682.38 87.49 681.52 88.21 680.69L92.64 675.46L95.68 675.46C92.82 678.82 90.77 681.21 89.53 682.64L95.84 691.82ZM110.44 691.82L108.81 687.28L102.55 687.28L100.95 691.82L98.14 691.82L104.26 675.4L107.16 675.4L113.28 691.82L110.44 691.82ZM108.1 684.97L106.57 680.52C106.46 680.22 106.3 679.75 106.11 679.11C105.91 678.47 105.77 678 105.7 677.7C105.5 678.62 105.2 679.62 104.82 680.71L103.34 684.97L108.1 684.97ZM117.73 675.47L122.59 675.47C124.84 675.47 126.47 675.79 127.47 676.45C128.47 677.11 128.98 678.15 128.98 679.56C128.98 680.52 128.73 681.31 128.24 681.95C127.75 682.58 127.04 682.98 126.11 683.14L126.11 683.25C127.26 683.47 128.11 683.9 128.65 684.54C129.19 685.17 129.46 686.04 129.46 687.13C129.46 688.6 128.95 689.74 127.92 690.58C126.89 691.41 125.47 691.82 123.64 691.82L117.73 691.82L117.73 675.47ZM120.41 682.22L122.98 682.22C124.1 682.22 124.92 682.05 125.43 681.69C125.95 681.34 126.2 680.74 126.2 679.89C126.2 679.12 125.93 678.56 125.37 678.22C124.81 677.88 123.93 677.7 122.72 677.7L120.41 677.7L120.41 682.22ZM120.41 684.4L120.41 689.58L123.25 689.58C124.37 689.58 125.21 689.36 125.78 688.93C126.35 688.5 126.64 687.83 126.64 686.9C126.64 686.05 126.35 685.42 125.77 685.01C125.19 684.6 124.3 684.4 123.11 684.4L120.41 684.4ZM147.97 675.47L147.97 686.05C147.97 687.26 147.71 688.32 147.19 689.22C146.68 690.13 145.93 690.83 144.95 691.31C143.96 691.8 142.79 692.05 141.43 692.05C139.4 692.05 137.82 691.51 136.69 690.43C135.57 689.36 135.01 687.88 135.01 686.01L135.01 675.47L137.69 675.47L137.69 685.81C137.69 687.17 138.01 688.16 138.63 688.8C139.26 689.45 140.22 689.76 141.52 689.76C144.04 689.76 145.3 688.44 145.3 685.79L145.3 675.47L147.97 675.47ZM139.71 674.16L139.71 673.88C140.13 673.36 140.57 672.77 141.02 672.13C141.47 671.49 141.83 670.94 142.09 670.49L145.14 670.49L145.14 670.72C144.76 671.18 144.17 671.77 143.4 672.49C142.63 673.2 141.98 673.76 141.45 674.16L139.71 674.16ZM167.66 683.49C167.66 686.17 166.91 688.23 165.41 689.67C163.91 691.11 161.75 691.82 158.94 691.82L154.45 691.82L154.45 684.85L152.82 684.85L152.82 682.61L154.45 682.61L154.45 675.46L159.44 675.46C162.03 675.46 164.04 676.17 165.49 677.57C166.94 678.98 167.66 680.95 167.66 683.49ZM164.84 683.58C164.84 681.64 164.38 680.17 163.45 679.18C162.52 678.19 161.15 677.7 159.33 677.7L157.12 677.7L157.12 682.61L160.56 682.61L160.56 684.85L157.12 684.85L157.12 689.57L158.91 689.57C162.87 689.57 164.84 687.57 164.84 683.58Z" />
		<path id="Path 30" class="shp5" d="M120.22 566.9C121.39 569.08 121.96 571.67 121.9 574.98C121.9 578.75 121.9 582.98 121.91 587.36C124.1 587.35 125.8 587.87 127.85 589.53C129.75 591.22 130.8 592.95 130.81 597.39C130.77 600.52 126.6 607.29 122.97 612.96L110.72 631.09L106.59 624.95C116.04 611.37 121.75 602.5 122.41 598.52C123 594.39 121.99 591.01 118.63 588.75C117.41 588.09 116.67 587.49 113.66 587.36C113.66 584.7 113.66 578.61 113.66 578.56C113.66 574.34 113.68 572.65 113.28 570.71C112.41 566.56 110.69 563.97 106.44 562.3C111.3 560.31 117.73 562.43 120.22 566.9Z" />
		<path id="Path 31" class="shp4" d="M102.55 608.68C102.54 602.54 102.54 601.04 102.55 596.07C106.34 596.05 108.85 599.22 108.83 602.36C108.85 606.27 105.54 608.66 102.55 608.68ZM102.53 596.07C99.55 596.08 96.23 598.48 96.25 602.38C96.23 605.53 98.74 608.7 102.53 608.68L102.54 608.68C102.54 616.63 102.54 622.79 102.54 631.15C96.13 620.82 87.9 610.87 83.04 599.96C82.01 597.09 82.37 593.4 84.07 590.97C86.25 588.36 87.93 587.59 91 587.34L91.4 587.35C91.4 583.33 91.4 578.25 91.41 573.67C91.7 568.84 93.07 564.57 98.22 562.45C99.72 561.8 101.22 561.55 102.54 561.56L102.54 596.03L102.53 596.07Z" />
		<path id="Path 32" fill-rule="evenodd" class="shp5" d="M33.87 659.84L33.87 645.95C33.52 644.23 33.69 643.03 32.15 642L41.75 642C42.27 642 43.81 642 44.16 641.83L44.16 645.95C43.13 644.23 39.52 644.06 36.78 644.75L36.78 650.41L40.21 650.41C40.72 650.41 42.1 650.41 42.27 650.23L42.27 653.84C41.58 652.64 38.84 652.64 36.78 652.98L36.78 659.84C36.78 661.21 36.95 662.59 38.49 663.1L31.8 663.1C33.52 662.41 33.52 660.87 33.87 659.84ZM73.32 660.53L73.32 644.75C73.32 642 72.46 642 71.77 641.49L78.8 641.49C83.27 641.49 86.52 643.03 86.52 646.81C86.52 650.23 83.78 652.3 81.38 652.64C84.81 656.75 86.52 661.22 90.29 663.1L86.86 663.1C85.49 663.1 84.46 662.41 82.91 660.7L77.26 652.3C81.38 650.58 83.27 649.9 82.92 647.15C82.92 644.57 80.69 643.38 76.92 644.06L76.92 660.36C76.92 661.73 77.26 662.59 78.46 663.1L71.77 663.1C72.8 662.93 73.32 661.9 73.32 660.53ZM92.83 659.67L92.83 644.57C92.83 642.52 92.32 642.69 91.63 641.83L97.98 641.83C97.46 642.35 96.26 642.52 96.26 644.75L96.26 660.36C100.63 660.84 101.35 661.28 105.52 658.81L103.8 663.1L91.29 663.1C93 661.9 92.83 660.53 92.83 659.67ZM127.48 652.64C128.51 642.52 137.6 640.46 146.18 642.35L146.18 646.12C140.69 641.49 130.92 645.09 131.6 652.98C132.29 662.42 142.06 662.24 144.98 660.87L144.98 656.07C144.98 654.35 144.81 653.33 143.44 652.47L148.58 652.47C148.41 652.98 148.41 653.33 148.41 654.7L148.41 661.39C148.41 661.9 148.41 662.42 148.58 662.93C140.01 665.33 127.65 663.62 127.48 652.64ZM153.3 660.36L153.3 644.75C153.3 643.55 153.13 642.52 151.76 641.83L158.1 641.83C157.07 642.52 156.56 643.38 156.56 645.09L156.56 660.36C156.56 661.38 157.76 662.93 158.62 663.1L151.59 663.1C152.27 662.93 153.3 661.9 153.3 660.36ZM162.93 659.84L162.93 653.41L162.91 653.41L160.58 653.5L160.58 651.07C160.58 651.07 161.7 651.1 162.91 651.13L162.93 651.12L162.93 644.75C162.93 642.69 162.24 642.52 161.38 641.83L169.28 641.83C177.51 641.83 181.8 647.32 181.46 652.46C181.28 657.61 178.02 663.62 169.1 663.1L161.38 663.1C162.76 662.41 162.93 661.39 162.93 659.84ZM166.36 660.53C169.1 661.73 177.17 660.53 177.68 653.5C178.19 643.38 169.1 644.57 166.36 644.75L166.36 651.16L166.42 651.17C168.02 651.13 170.26 651.07 170.26 651.07L170.26 653.5L166.37 653.36L166.36 653.37L166.36 660.53Z" />
		<path id="Path 33" fill-rule="evenodd" class="shp5" d="M57.89 641.49C64.41 641.49 69.56 645.61 69.73 652.47C69.73 657.27 66.3 663.79 58.41 663.79C50.35 663.79 46.4 659.16 45.89 652.98C45.89 648.35 48.8 641.49 57.89 641.49ZM58.41 661.39C63.04 661.39 66.3 657.1 65.96 652.64C65.78 648.35 62.7 643.89 57.55 643.89C53.78 643.89 49.66 646.81 50 652.64C50 657.96 53.95 661.39 58.41 661.39ZM107.83 659.67L113.8 645.05C114.38 642.69 113.87 642.35 113.18 641.83L118.16 641.83L125.88 660.18C126.73 661.73 127.59 662.24 128.45 663.1L121.59 663.1C123.65 662.24 122.62 660.87 122.28 660.18L120.22 655.04L112.33 655.04L110.27 660.53C109.92 662.24 110.61 662.41 111.47 663.1L105.12 663.1C106.79 661.93 107.57 660.4 107.83 659.67ZM113.18 652.64L119.36 652.64L116.27 644.75L113.18 652.64Z" />
		<path id="Path 34" fill-rule="evenodd" class="shp4" d="M50.55 1220.35L55.41 1220.35C57.66 1220.35 59.29 1220.68 60.29 1221.33C61.29 1221.99 61.79 1223.03 61.79 1224.44C61.79 1225.4 61.55 1226.19 61.06 1226.83C60.56 1227.46 59.85 1227.86 58.93 1228.02L58.93 1228.13C60.08 1228.35 60.92 1228.78 61.46 1229.42C62 1230.06 62.27 1230.92 62.27 1232.01C62.27 1233.48 61.76 1234.63 60.74 1235.46C59.71 1236.29 58.28 1236.7 56.46 1236.7L50.55 1236.7L50.55 1220.35ZM53.22 1227.11L55.8 1227.11C56.92 1227.11 57.73 1226.93 58.25 1226.57C58.76 1226.22 59.02 1225.62 59.02 1224.77C59.02 1224 58.74 1223.45 58.19 1223.1C57.63 1222.76 56.75 1222.59 55.54 1222.59L53.22 1222.59L53.22 1227.11ZM53.22 1229.28L53.22 1234.46L56.07 1234.46C57.18 1234.46 58.03 1234.24 58.6 1233.81C59.17 1233.38 59.46 1232.71 59.46 1231.78C59.46 1230.93 59.16 1230.3 58.58 1229.89C58 1229.48 57.12 1229.28 55.93 1229.28L53.22 1229.28ZM82.49 1228.5C82.49 1231.17 81.83 1233.23 80.49 1234.71C79.16 1236.19 77.28 1236.93 74.84 1236.93C72.37 1236.93 70.47 1236.2 69.15 1234.73C67.83 1233.27 67.16 1231.18 67.16 1228.48C67.16 1225.78 67.83 1223.71 69.16 1222.26C70.49 1220.81 72.39 1220.09 74.86 1220.09C77.29 1220.09 79.17 1220.83 80.5 1222.29C81.83 1223.77 82.49 1225.84 82.49 1228.5ZM70.01 1228.5C70.01 1230.52 70.41 1232.04 71.22 1233.09C72.04 1234.13 73.24 1234.64 74.84 1234.64C76.43 1234.64 77.62 1234.13 78.44 1233.1C79.24 1232.07 79.65 1230.54 79.65 1228.5C79.65 1226.5 79.25 1224.98 78.45 1223.94C77.65 1222.9 76.45 1222.38 74.86 1222.38C73.26 1222.38 72.05 1222.9 71.23 1223.94C70.41 1224.98 70.01 1226.5 70.01 1228.5ZM73.16 1219.04L73.16 1218.76C73.58 1218.24 74.02 1217.66 74.47 1217.02C74.92 1216.37 75.28 1215.82 75.54 1215.37L78.6 1215.37L78.6 1215.61C78.21 1216.06 77.63 1216.65 76.86 1217.37C76.09 1218.09 75.44 1218.64 74.9 1219.04L73.16 1219.04ZM100.78 1236.71L97.68 1236.71L92.55 1229.3L90.97 1230.58L90.97 1236.71L88.29 1236.71L88.29 1220.35L90.97 1220.35L90.97 1228.16C91.7 1227.26 92.43 1226.4 93.15 1225.57L97.57 1220.35L100.61 1220.35C97.75 1223.71 95.71 1226.09 94.47 1227.52L100.78 1236.71ZM115.38 1236.71L113.74 1232.16L107.49 1232.16L105.89 1236.71L103.07 1236.71L109.19 1220.28L112.1 1220.28L118.22 1236.71L115.38 1236.71ZM113.04 1229.85L111.51 1225.41C111.4 1225.1 111.24 1224.64 111.04 1224C110.84 1223.35 110.71 1222.89 110.63 1222.58C110.43 1223.5 110.14 1224.51 109.75 1225.59L108.27 1229.85L113.04 1229.85ZM122.67 1220.35L127.53 1220.35C129.78 1220.35 131.41 1220.68 132.41 1221.33C133.41 1221.99 133.91 1223.03 133.91 1224.44C133.91 1225.4 133.67 1226.19 133.18 1226.83C132.68 1227.46 131.97 1227.86 131.05 1228.02L131.05 1228.13C132.2 1228.35 133.04 1228.78 133.58 1229.42C134.12 1230.06 134.39 1230.92 134.39 1232.01C134.39 1233.48 133.88 1234.63 132.86 1235.46C131.83 1236.29 130.4 1236.7 128.58 1236.7L122.67 1236.7L122.67 1220.35ZM125.34 1227.11L127.92 1227.11C129.04 1227.11 129.85 1226.93 130.37 1226.57C130.88 1226.22 131.14 1225.62 131.14 1224.77C131.14 1224 130.86 1223.45 130.3 1223.1C129.75 1222.76 128.87 1222.59 127.66 1222.59L125.34 1222.59L125.34 1227.11ZM125.34 1229.28L125.34 1234.46L128.19 1234.46C129.3 1234.46 130.15 1234.24 130.72 1233.81C131.29 1233.38 131.57 1232.71 131.57 1231.78C131.57 1230.93 131.28 1230.3 130.7 1229.89C130.12 1229.48 129.24 1229.28 128.05 1229.28L125.34 1229.28ZM152.91 1220.35L152.91 1230.93C152.91 1232.14 152.65 1233.2 152.13 1234.11C151.62 1235.01 150.87 1235.71 149.88 1236.19C148.9 1236.68 147.73 1236.93 146.37 1236.93C144.34 1236.93 142.76 1236.39 141.63 1235.32C140.51 1234.24 139.94 1232.77 139.94 1230.89L139.94 1220.35L142.63 1220.35L142.63 1230.69C142.63 1232.05 142.94 1233.04 143.57 1233.68C144.19 1234.33 145.16 1234.64 146.45 1234.64C148.97 1234.64 150.24 1233.32 150.24 1230.68L150.24 1220.35L152.91 1220.35ZM144.64 1219.04L144.64 1218.76C145.07 1218.24 145.51 1217.66 145.95 1217.02C146.41 1216.37 146.76 1215.82 147.03 1215.37L150.08 1215.37L150.08 1215.61C149.69 1216.06 149.11 1216.65 148.34 1217.37C147.57 1218.09 146.92 1218.64 146.39 1219.04L144.64 1219.04ZM172.6 1228.37C172.6 1231.05 171.85 1233.12 170.35 1234.55C168.85 1235.99 166.69 1236.71 163.87 1236.71L159.38 1236.71L159.38 1229.73L157.75 1229.73L157.75 1227.5L159.38 1227.5L159.38 1220.35L164.37 1220.35C166.96 1220.35 168.98 1221.05 170.43 1222.46C171.87 1223.86 172.6 1225.83 172.6 1228.37ZM169.78 1228.46C169.78 1226.52 169.31 1225.05 168.38 1224.07C167.46 1223.08 166.08 1222.58 164.26 1222.58L162.06 1222.58L162.06 1227.5L165.49 1227.5L165.49 1229.73L162.06 1229.73L162.06 1234.46L163.85 1234.46C167.8 1234.46 169.78 1232.46 169.78 1228.46Z" />
		<path id="Path 35" class="shp5" d="M125.16 1111.79C126.32 1113.96 126.89 1116.55 126.84 1119.86C126.84 1123.63 126.84 1127.86 126.84 1132.24C129.04 1132.23 130.73 1132.75 132.79 1134.41C134.68 1136.1 135.74 1137.83 135.75 1142.28C135.7 1145.41 131.54 1152.17 127.91 1157.85L115.65 1175.97L111.52 1169.84C120.97 1156.26 126.68 1147.38 127.34 1143.4C127.93 1139.27 126.93 1135.89 123.56 1133.63C122.35 1132.97 121.61 1132.37 118.6 1132.24C118.6 1129.58 118.59 1123.49 118.59 1123.45C118.59 1119.23 118.61 1117.53 118.22 1115.59C117.34 1111.44 115.63 1108.85 111.37 1107.18C116.24 1105.19 122.66 1107.32 125.16 1111.79Z" />
		<path id="Path 36" class="shp4" d="M107.49 1153.56C107.47 1147.42 107.47 1145.92 107.49 1140.95C111.27 1140.93 113.78 1144.1 113.77 1147.24C113.78 1151.15 110.47 1153.54 107.49 1153.56ZM107.47 1140.95C104.48 1140.97 101.17 1143.36 101.18 1147.27C101.17 1150.41 103.68 1153.58 107.47 1153.56L107.47 1153.56C107.48 1161.52 107.48 1167.68 107.48 1176.03C101.06 1165.71 92.84 1155.75 87.97 1144.85C86.94 1141.97 87.31 1138.29 89 1135.85C91.18 1133.24 92.87 1132.48 95.93 1132.23L96.33 1132.23C96.34 1128.21 96.34 1123.14 96.34 1118.56C96.63 1113.72 98.01 1109.45 103.16 1107.33C104.66 1106.68 106.16 1106.43 107.47 1106.44L107.47 1140.91L107.47 1140.95Z" />
		<path id="Path 37" fill-rule="evenodd" class="shp5" d="M38.8 1204.72L38.8 1190.83C38.45 1189.12 38.63 1187.91 37.08 1186.88L46.69 1186.88C47.2 1186.88 48.75 1186.88 49.09 1186.71L49.09 1190.83C48.06 1189.12 44.46 1188.94 41.71 1189.63L41.71 1195.29L45.14 1195.29C45.66 1195.29 47.03 1195.29 47.2 1195.12L47.2 1198.72C46.52 1197.52 43.77 1197.52 41.71 1197.86L41.71 1204.72C41.71 1206.1 41.88 1207.47 43.43 1207.98L36.74 1207.98C38.45 1207.3 38.45 1205.75 38.8 1204.72ZM78.25 1205.41L78.25 1189.63C78.25 1186.88 77.39 1186.88 76.71 1186.37L83.74 1186.37C88.2 1186.37 91.46 1187.91 91.46 1191.69C91.46 1195.12 88.71 1197.18 86.31 1197.52C89.74 1201.64 91.45 1206.1 95.22 1207.98L91.79 1207.98C90.42 1207.98 89.39 1207.29 87.85 1205.58L82.2 1197.18C86.31 1195.46 88.2 1194.78 87.86 1192.03C87.86 1189.46 85.63 1188.26 81.85 1188.95L81.85 1205.24C81.85 1206.61 82.2 1207.47 83.4 1207.98L76.71 1207.98C77.74 1207.81 78.25 1206.78 78.25 1205.41ZM97.77 1204.55L97.77 1189.46C97.77 1187.4 97.25 1187.57 96.57 1186.71L102.91 1186.71C102.4 1187.23 101.2 1187.4 101.2 1189.63L101.2 1205.24C105.57 1205.73 106.29 1206.16 110.45 1203.69L108.74 1207.98L96.22 1207.98C97.94 1206.78 97.77 1205.41 97.77 1204.55ZM132.42 1197.52C133.45 1187.4 142.54 1185.34 151.11 1187.23L151.11 1191C145.63 1186.37 135.85 1189.97 136.54 1197.86C137.22 1207.3 147 1207.12 149.91 1205.75L149.91 1200.95C149.91 1199.23 149.74 1198.21 148.37 1197.35L153.52 1197.35C153.35 1197.86 153.35 1198.21 153.35 1199.58L153.35 1206.27C153.35 1206.78 153.35 1207.3 153.52 1207.81C144.94 1210.21 132.59 1208.5 132.42 1197.52ZM158.24 1205.24L158.24 1189.63C158.24 1188.43 158.07 1187.4 156.69 1186.71L163.04 1186.71C162.01 1187.4 161.5 1188.26 161.5 1189.97L161.5 1205.24C161.5 1206.27 162.7 1207.81 163.55 1207.98L156.52 1207.98C157.21 1207.81 158.24 1206.78 158.24 1205.24ZM167.86 1204.72L167.86 1198.29L167.85 1198.29L165.51 1198.38L165.51 1195.96C165.51 1195.96 166.63 1195.98 167.85 1196.01L167.86 1196L167.86 1189.63C167.86 1187.57 167.18 1187.4 166.32 1186.71L174.21 1186.71C182.44 1186.71 186.73 1192.2 186.39 1197.35C186.22 1202.5 182.96 1208.5 174.04 1207.98L166.32 1207.98C167.69 1207.3 167.86 1206.27 167.86 1204.72ZM171.29 1205.41C174.04 1206.61 182.1 1205.41 182.62 1198.38C183.13 1188.26 174.04 1189.46 171.29 1189.63L171.29 1196.04L171.35 1196.05C172.96 1196.01 175.2 1195.96 175.2 1195.96L175.2 1198.38L171.31 1198.24L171.29 1198.25L171.29 1205.41Z" />
		<path id="Path 38" fill-rule="evenodd" class="shp5" d="M62.83 1186.37C69.35 1186.37 74.49 1190.49 74.66 1197.35C74.66 1202.15 71.23 1208.67 63.34 1208.67C55.28 1208.67 51.34 1204.04 50.82 1197.86C50.82 1193.23 53.74 1186.37 62.83 1186.37ZM63.34 1206.27C67.97 1206.27 71.23 1201.98 70.89 1197.52C70.72 1193.23 67.63 1188.77 62.49 1188.77C58.71 1188.77 54.6 1191.69 54.94 1197.52C54.94 1202.84 58.88 1206.27 63.34 1206.27ZM112.77 1204.55L118.73 1189.93C119.32 1187.57 118.81 1187.23 118.12 1186.71L123.09 1186.71L130.81 1205.07C131.67 1206.61 132.53 1207.12 133.39 1207.98L126.52 1207.98C128.58 1207.12 127.55 1205.75 127.21 1205.07L125.15 1199.92L117.26 1199.92L115.2 1205.41C114.86 1207.12 115.55 1207.3 116.4 1207.98L110.06 1207.98C111.73 1206.82 112.5 1205.28 112.77 1204.55ZM118.12 1197.52L124.29 1197.52L121.21 1189.63L118.12 1197.52Z" />
	</g>
</svg>