<?xml version="1.0" encoding="UTF-8"?>
<!-- Created with Inkscape (http://www.inkscape.org/) -->
<svg width="80" height="80" version="1.1" viewBox="0 0 512 512" xmlns="http://www.w3.org/2000/svg">
 <defs>
  <clipPath id="cp1">
   <path d="m-486-247h1191v1684h-1191z"/>
  </clipPath>
 </defs>
 <g transform="translate(144.76 -346.76)" clip-path="url(#cp1)">
  <g transform="matrix(2.6724 0 0 2.6724 -173.74 -655.96)">
   <path class="shp1" d="m120.22 402.11c1.17 2.18 1.74 4.77 1.68 8.08 0 3.77 0 8 0.01 12.38 2.19-0.01 3.89 0.51 5.94 2.17 1.9 1.69 2.95 3.42 2.96 7.86-0.04 3.13-4.21 9.9-7.84 15.57l-12.25 18.13-4.13-6.14c9.45-13.58 15.16-22.45 15.82-26.43 0.59-4.13-0.42001-7.51-3.78-9.77-1.22-0.66-1.96-1.26-4.97-1.39v-8.8c0-4.22 0.02-5.91-0.38-7.85-0.87-4.15-2.59-6.74-6.84-8.41 4.86-1.99 11.29 0.13 13.78 4.6z" fill-rule="evenodd"/>
   <path class="shp0" d="m102.55 443.89c-0.01-6.14-0.01-7.64 0-12.61 3.79-0.02 6.3 3.15 6.28 6.29 0.02 3.91-3.29 6.3-6.28 6.32zm-0.02-12.61c-2.98 0.01-6.3 2.41-6.28 6.31-0.02 3.15 2.49 6.32 6.28 6.3h0.01v22.47c-6.41-10.33-14.64-20.28-19.5-31.19-1.03-2.87-0.67-6.56 1.03-8.99 2.18-2.61 3.86-3.38 6.93-3.63l0.4 0.01c0-4.02 0-9.1 0.01-13.68 0.29-4.83 1.66-9.1 6.81-11.22 1.5-0.65 3-0.9 4.32-0.89v34.47z"/>
   <g fill-rule="evenodd">
    <path class="shp1" d="m33.87 495.05v-13.89c-0.35-1.72-0.18-2.92-1.72-3.95h9.6c0.52 0 2.06 0 2.41-0.17v4.12c-1.03-1.72-4.64-1.89-7.38-1.2v5.66h3.43c0.51 0 1.89 0 2.06-0.18v3.61c-0.69-1.2-3.43-1.2-5.49-0.86v6.86c0 1.37 0.17 2.75 1.71 3.26h-6.69c1.72-0.69 1.72-2.23 2.07-3.26zm39.45 0.69v-15.78c0-2.75-0.86-2.75-1.55-3.26h7.03c4.47 0 7.72 1.54 7.72 5.32 0 3.42-2.74 5.49-5.14 5.83 3.43 4.11 5.14 8.58 8.91 10.46h-3.43c-1.37 0-2.4-0.69-3.95-2.4l-5.65-8.4c4.12-1.72 6.01-2.4 5.66-5.15 0-2.58-2.23-3.77-6-3.09v16.3c0 1.37 0.34 2.23 1.54 2.74h-6.69c1.03-0.17 1.55-1.2 1.55-2.57zm19.51-0.86v-15.1c0-2.05-0.51-1.88-1.2-2.74h6.35c-0.52 0.52-1.72 0.69-1.72 2.92v15.61c4.37 0.48 5.09 0.92 9.26-1.55l-1.72 4.29h-12.51c1.71-1.2 1.54-2.57 1.54-3.43zm34.65-7.03c1.03-10.13 10.12-12.18 18.7-10.3v3.78c-5.49-4.63-15.26-1.03-14.58 6.86 0.69 9.43 10.46 9.26 13.38 7.89v-4.8c0-1.72-0.17-2.75-1.54-3.61h5.14c-0.17 0.52-0.17 0.86-0.17 2.23v6.7c0 0.51 0 1.02 0.17 1.54-8.57 2.4-20.93 0.69-21.1-10.29zm25.82 7.72v-15.61c0-1.2-0.17-2.23-1.54-2.92h6.34c-1.03 0.69-1.54 1.55-1.54 3.26v15.27c0 1.02 1.2 2.57 2.06 2.74h-7.03c0.68-0.17 1.71-1.2 1.71-2.74zm9.63-0.52v-6.43h-0.02l-2.33 0.09v-2.43s1.12 0.03 2.33 0.06l0.02-0.01v-6.37c0-2.06-0.69-2.23-1.55-2.92h7.9c8.23 0 12.52 5.49 12.18 10.63-0.18 5.15-3.44 11.16-12.36 10.64h-7.72c1.38-0.69 1.55-1.71 1.55-3.26zm3.43 0.69c2.74 1.2 10.81 0 11.32-7.03 0.51-10.12-8.58-8.93-11.32-8.75v6.41l0.06 0.01c1.6-0.04 3.84-0.1 3.84-0.1v2.43l-3.89-0.14-0.01 0.01z"/>
    <path class="shp1" d="m57.89 476.7c6.52 0 11.67 4.11 11.84 10.97 0 4.81-3.43 11.33-11.32 11.33-8.06 0-12.01-4.63-12.52-10.81 0-4.63 2.91-11.49 12-11.49zm0.52 19.9c4.63 0 7.89-4.29 7.55-8.75-0.18-4.29-3.26-8.75-8.41-8.75-3.77 0-7.89 2.91-7.55 8.75 0 5.32 3.95 8.75 8.41 8.75zm49.42-1.72 5.97-14.62c0.58-2.36 0.07-2.7-0.62-3.22h4.98l7.72 18.35c0.85 1.55 1.71 2.06 2.57 2.92h-6.86c2.06-0.86 1.03-2.23 0.69001-2.92l-2.06-5.14h-7.89l-2.06 5.49c-0.35 1.71 0.34 1.88 1.2 2.57h-6.35c1.67-1.17 2.45-2.7 2.71-3.43zm5.35-7.03h6.18l-3.09-7.89z"/>
    <path class="shp4" d="m45.62 510.72h4.85c2.25 0 3.88 0.32 4.88 0.98 1.01 0.66 1.51 1.7 1.51 3.11 0 0.96-0.25 1.75-0.74 2.39-0.49 0.63-1.2 1.03-2.12 1.19v0.11c1.14 0.22 1.99 0.65 2.53 1.29 0.54 0.63 0.81 1.5 0.81 2.59 0 1.47-0.51 2.61-1.54 3.45-1.02 0.83-2.45 1.24-4.28 1.24h-5.9zm2.67 6.75h2.57c1.12 0 1.94-0.17 2.45-0.53 0.52-0.35 0.78-0.95 0.78-1.8 0-0.77-0.28-1.33-0.84-1.67-0.55-0.34-1.44-0.52-2.64-0.52h-2.32zm0 2.18v5.18h2.84c1.12 0 1.96-0.22 2.54-0.65 0.57-0.43 0.85-1.1 0.85-2.03 0-0.85-0.29-1.48-0.87-1.89s-1.47-0.61-2.65-0.61zm29.26-0.78c0 2.67-0.66 4.73-1.99 6.21s-3.22 2.22-5.66 2.22c-2.47 0-4.36-0.74-5.69-2.2-1.32-1.47-1.98-3.55-1.98-6.25s0.66-4.77 2-6.22c1.33-1.45 3.23-2.17 5.69-2.17 2.44 0 4.31 0.74 5.64 2.2 1.33 1.47 1.99 3.54 1.99 6.21zm-12.48 0c0 2.02 0.41 3.54 1.22 4.58 0.81 1.04 2.02 1.56 3.61 1.56 1.59 0 2.79-0.51 3.6-1.54s1.21-2.56 1.21-4.6c0-2-0.4-3.53-1.2-4.56-0.8-1.04-2-1.56-3.59-1.56-1.6 0-2.81 0.52-3.62 1.56-0.82 1.03-1.23 2.56-1.23 4.56zm3.16-9.46v-0.28c0.42-0.52 0.86-1.11 1.31-1.75 0.45-0.64 0.81-1.19 1.07-1.64h3.05v0.23c-0.39 0.46-0.97 1.05-1.74 1.77-0.77 0.71-1.42 1.27-1.95 1.67zm27.61 17.66h-3.1l-5.13-7.4-1.58 1.28v6.12h-2.67v-16.36h2.67v7.81c0.73-0.89 1.46-1.75 2.18-2.58l4.43-5.23h3.04c-2.86 3.36-4.91 5.75-6.15 7.18zm14.6 0-1.63-4.54h-6.26l-1.6 4.54h-2.81l6.12-16.42h2.9l6.12 16.42zm-2.34-6.85-1.53-4.45c-0.11-0.3-0.27-0.77-0.46-1.41-0.2-0.64-0.34-1.11-0.41-1.41-0.2 0.92-0.5 1.92-0.88 3.01l-1.48 4.26zm9.63-9.5h4.86c2.25 0 3.88 0.32 4.88 0.98 1 0.66 1.51 1.7 1.51 3.11 0 0.96-0.25 1.75-0.74001 2.39-0.49 0.63-1.2 1.03-2.13 1.19v0.11c1.15 0.22 2 0.65 2.54 1.29 0.54 0.63 0.81 1.5 0.81 2.59 0 1.47-0.51 2.61-1.54 3.45-1.03 0.83-2.45 1.24-4.28 1.24h-5.91zm2.68 6.75h2.57c1.12 0 1.94-0.17 2.45-0.53 0.52-0.35 0.77-0.95 0.77-1.8 0-0.77-0.27-1.33-0.83-1.67s-1.44-0.52-2.65-0.52h-2.31zm0 2.18v5.18h2.84c1.12 0 1.96-0.22 2.53-0.65s0.86-1.1 0.86-2.03c0-0.85-0.29-1.48-0.87-1.89s-1.47-0.61-2.66-0.61zm27.56-8.93v10.58c0 1.21-0.26 2.27-0.78 3.17-0.51001 0.91-1.26 1.61-2.24 2.09-0.99 0.49-2.16 0.74-3.52 0.74-2.03 0-3.61-0.54-4.74-1.62-1.12-1.07-1.68-2.55-1.68-4.42v-10.54h2.68v10.34c0 1.36 0.32 2.35 0.94 2.99 0.63 0.65 1.59 0.96 2.89 0.96 2.52 0 3.78-1.32 3.78-3.97v-10.32zm-8.26-1.31v-0.28c0.42-0.52 0.86-1.11 1.31-1.75 0.45-0.64 0.81-1.19 1.07-1.64h3.05v0.23c-0.38 0.46-0.97 1.05-1.74 1.77-0.77 0.71-1.42 1.27-1.95 1.67zm27.95 9.33c0 2.68-0.75 4.74-2.25 6.18-1.5 1.44-3.66 2.15-6.47 2.15h-4.49v-6.97h-1.63v-2.24h1.63v-7.15h4.99c2.59 0 4.6 0.71 6.05 2.11 1.45 1.41 2.17 3.38 2.17 5.92zm-2.82 0.09c0-1.94-0.46-3.41-1.39-4.4s-2.3-1.48-4.12-1.48h-2.21v4.91h3.44v2.24h-3.44v4.72h1.79c3.96 0 5.93-2 5.93-5.99z"/>
   </g>
   <path class="shp5" d="m120.22 402.15c1.17 2.18 1.74 4.77 1.68 8.08 0 3.77 0 8 0.01 12.38 2.19-0.01 3.89 0.51 5.94 2.17 1.9 1.69 2.95 3.42 2.96 7.86-0.04 3.13-4.21 9.9-7.84 15.57l-12.25 18.13-4.13-6.14c9.45-13.58 15.16-22.45 15.82-26.43 0.59-4.13-0.42001-7.51-3.78-9.77-1.22-0.66-1.96-1.26-4.97-1.39v-8.8c0-4.22 0.02-5.91-0.38-7.85-0.87-4.15-2.59-6.74-6.84-8.41 4.86-1.99 11.29 0.13 13.78 4.6z"/>
   <path class="shp4" d="m102.55 443.93c-0.01-6.14-0.01-7.64 0-12.61 3.79-0.02 6.3 3.15 6.28 6.29 0.02 3.91-3.29 6.3-6.28 6.32zm-0.02-12.61c-2.98 0.01-6.3 2.41-6.28 6.31-0.02 3.15 2.49 6.32 6.28 6.3h0.01v22.47c-6.41-10.33-14.64-20.28-19.5-31.19-1.03-2.87-0.67-6.56 1.03-8.99 2.18-2.61 3.86-3.38 6.93-3.63l0.4 0.01c0-4.02 0-9.1 0.01-13.68 0.29-4.83 1.66-9.1 6.81-11.22 1.5-0.65 3-0.9 4.32-0.89v34.47z"/>
   <path class="shp5" d="m33.87 495.09v-13.89c-0.35-1.72-0.18-2.92-1.72-3.95h9.6c0.52 0 2.06 0 2.41-0.17v4.12c-1.03-1.72-4.64-1.89-7.38-1.2v5.66h3.43c0.51 0 1.89 0 2.06-0.18v3.61c-0.69-1.2-3.43-1.2-5.49-0.86v6.86c0 1.37 0.17 2.75 1.71 3.26h-6.69c1.72-0.69 1.72-2.23 2.07-3.26zm39.45 0.69v-15.78c0-2.75-0.86-2.75-1.55-3.26h7.03c4.47 0 7.72 1.54 7.72 5.32 0 3.42-2.74 5.49-5.14 5.83 3.43 4.11 5.14 8.58 8.91 10.46h-3.43c-1.37 0-2.4-0.69-3.95-2.4l-5.65-8.4c4.12-1.72 6.01-2.4 5.66-5.15 0-2.58-2.23-3.77-6-3.09v16.3c0 1.37 0.34 2.23 1.54 2.74h-6.69c1.03-0.17 1.55-1.2 1.55-2.57zm19.51-0.86v-15.1c0-2.05-0.51-1.88-1.2-2.74h6.35c-0.52 0.52-1.72 0.69-1.72 2.92v15.61c4.37 0.48 5.09 0.92 9.26-1.55l-1.72 4.29h-12.51c1.71-1.2 1.54-2.57 1.54-3.43zm34.65-7.03c1.03-10.12 10.12-12.18 18.7-10.29v3.77c-5.49-4.63-15.26-1.03-14.58 6.86 0.69 9.44 10.46 9.26 13.38 7.89v-4.8c0-1.72-0.17-2.74-1.54-3.6h5.14c-0.17 0.51-0.17 0.86-0.17 2.23v6.69c0 0.51 0 1.03 0.17 1.54-8.57 2.4-20.93 0.69-21.1-10.29zm25.82 7.72v-15.61c0-1.2-0.17-2.23-1.54-2.92h6.34c-1.03 0.69-1.54 1.55-1.54 3.26v15.27c0 1.02 1.2 2.57 2.06 2.74h-7.03c0.68-0.17 1.71-1.2 1.71-2.74zm9.63-0.52v-6.43h-0.02l-2.33 0.09v-2.43s1.12 0.03 2.33 0.06l0.02-0.01v-6.37c0-2.06-0.69-2.23-1.55-2.92h7.9c8.23 0 12.52 5.49 12.18 10.63-0.18 5.15-3.44 11.16-12.36 10.64h-7.72c1.38-0.69 1.55-1.71 1.55-3.26zm3.43 0.69c2.74 1.2 10.81 0 11.32-7.03 0.51-10.12-8.58-8.93-11.32-8.75v6.41l0.06 0.01c1.6-0.04 3.84-0.1 3.84-0.1v2.43l-3.89-0.14-0.01 0.01z" fill-rule="evenodd"/>
   <path class="shp5" d="m57.89 476.74c6.52 0 11.67 4.12 11.84 10.98 0 4.8-3.43 11.32-11.32 11.32-8.06 0-12.01-4.63-12.52-10.81 0-4.63 2.91-11.49 12-11.49zm0.52 19.9c4.63 0 7.89-4.29 7.55-8.75-0.18-4.29-3.26-8.75-8.41-8.75-3.77 0-7.89 2.92-7.55 8.75 0 5.32 3.95 8.75 8.41 8.75zm49.42-1.72 5.97-14.62c0.58-2.36 0.07-2.7-0.62-3.22h4.98l7.72 18.35c0.85 1.55 1.71 2.06 2.57 2.92h-6.86c2.06-0.86 1.03-2.23 0.69001-2.92l-2.06-5.14h-7.89l-2.06 5.49c-0.35 1.71 0.34 1.88 1.2 2.57h-6.35c1.67-1.17 2.45-2.7 2.71-3.43zm5.35-7.03h6.18l-3.09-7.89z" fill-rule="evenodd"/>
  </g>
 </g>
 <style>tspan { white-space:pre }
		.shp0 { fill: #97231a } 
		.shp1 { fill: #cccccd } 
		.txt2 { font-size: 23px;fill: #97231a;font-weight: 600;font-family: "OpenSans-Semibold", "Open Sans" } 
		.txt3 { font-size: 24px;fill: #000000;font-family: "Myriad Pro" } 
		.shp4 { fill: #98231a } 
		.shp5 { fill: #adaeae }</style>
</svg>
