<?xml version="1.0" encoding="UTF-8" standalone="no"?>
<!-- Created with Inkscape (http://www.inkscape.org/) -->

<svg
   inkscape:version="1.1.1 (c3084ef, 2021-09-22)"
   sodipodi:docname="Bokatidindi.svg"
   viewBox="0 0 688.51721 104.49866"
   height="104.49866"
   width="688.51721"
   xml:space="preserve"
   id="svg41"
   version="1.1"
   xmlns:inkscape="http://www.inkscape.org/namespaces/inkscape"
   xmlns:sodipodi="http://sodipodi.sourceforge.net/DTD/sodipodi-0.dtd"
   xmlns="http://www.w3.org/2000/svg"
   xmlns:svg="http://www.w3.org/2000/svg"><defs
     id="defs45"><clipPath
       clipPathUnits="userSpaceOnUse"
       id="clipPath55"><path
         d="M 0,612 H 792 V 0 H 0 Z"
         id="path53" /></clipPath><clipPath
       clipPathUnits="userSpaceOnUse"
       id="clipPath123"><path
         d="m 141.054,270.076 h 502.822 v 71.572 H 141.054 Z"
         id="path121" /></clipPath><clipPath
       clipPathUnits="userSpaceOnUse"
       id="clipPath139"><path
         d="M 0,612 H 792 V 0 H 0 Z"
         id="path137" /></clipPath><clipPath
       clipPathUnits="userSpaceOnUse"
       id="clipPath151"><path
         d="m 141.054,270.076 h 502.822 v 71.572 H 141.054 Z"
         id="path149" /></clipPath><clipPath
       clipPathUnits="userSpaceOnUse"
       id="clipPath163"><path
         d="M 0,612 H 792 V 0 H 0 Z"
         id="path161" /></clipPath><clipPath
       clipPathUnits="userSpaceOnUse"
       id="clipPath175"><path
         d="m 141.054,270.076 h 502.822 v 71.572 H 141.054 Z"
         id="path173" /></clipPath><clipPath
       clipPathUnits="userSpaceOnUse"
       id="clipPath187"><path
         d="M 0,612 H 792 V 0 H 0 Z"
         id="path185" /></clipPath><clipPath
       clipPathUnits="userSpaceOnUse"
       id="clipPath199"><path
         d="m 141.236,269.53 h 502.822 v 71.572 H 141.236 Z"
         id="path197" /></clipPath></defs><sodipodi:namedview
     id="namedview43"
     pagecolor="#ffffff"
     bordercolor="#666666"
     borderopacity="1.0"
     inkscape:pageshadow="2"
     inkscape:pageopacity="0.0"
     inkscape:pagecheckerboard="0"
     showgrid="false"
     inkscape:zoom="0.91053922"
     inkscape:cx="144.41992"
     inkscape:cy="253.1467"
     inkscape:window-width="1312"
     inkscape:window-height="969"
     inkscape:window-x="1924"
     inkscape:window-y="25"
     inkscape:window-maximized="0"
     inkscape:current-layer="g47"
     fit-margin-top="0"
     fit-margin-left="0"
     fit-margin-right="0"
     fit-margin-bottom="0" /><g
     id="g47"
     inkscape:groupmode="layer"
     inkscape:label="Bókatíðindi"
     transform="matrix(1.3333333,0,0,-1.3333333,-184.26653,460.06452)"><g
       id="g49"><g
         id="g51"
         clip-path="url(#clipPath55)"><g
           id="g57"
           transform="translate(485.8417,287.9634)"><path
             d="m 0,0 c 0,3.377 -0.805,6.566 -2.201,9.413 -0.027,0.111 -0.06,0.214 -0.105,0.304 l -13.295,23.882 8.641,4.309 -4.716,9.458 -8.641,-4.308 -6.068,11.826 -10.157,-5.063 6.068,-11.827 -8.82,-4.397 4.716,-9.459 8.82,4.398 3.884,-7.169 C -33.368,21.051 -42.579,11.571 -42.579,0 c 0,-11.661 9.522,-21.289 21.29,-21.289 C -9.521,-21.289 0,-11.661 0,0 m -10.201,0.085 c 0,-0.474 -0.04,-0.939 -0.097,-1.397 -0.201,-2.447 -1.321,-4.654 -3.021,-6.333 -1.97,-2.036 -4.71,-3.302 -7.743,-3.302 -0.451,0 -0.893,0.036 -1.329,0.091 -4.436,0.443 -7.861,3.543 -9.042,7.655 -0.318,1.038 -0.49,2.141 -0.49,3.286 0,2.081 0.578,4.02 1.564,5.682 0.055,0.096 0.112,0.189 0.17,0.283 0.255,0.403 0.534,0.79 0.838,1.155 0.178,0.218 0.365,0.423 0.56,0.626 0.157,0.161 0.324,0.311 0.491,0.462 0.337,0.31 0.686,0.599 1.063,0.862 0.304,0.214 0.618,0.415 0.943,0.597 0.197,0.107 0.397,0.206 0.602,0.301 1.406,0.675 2.972,1.064 4.63,1.064 5.998,0 10.861,-4.939 10.861,-11.032"
             style="fill:#ddb22e;fill-opacity:1;fill-rule:nonzero;stroke:none"
             id="path59" /></g><g
           id="g61"
           transform="translate(210.4459,317.7684)"><path
             d="m 0,0 c 0,4.172 -1.07,8.238 -3.102,11.875 -6.526,11.447 -20.327,15.405 -32.737,15.405 -19.042,0 -36.407,-11.554 -36.407,-31.88 0,-7.81 1.745,-12.517 7.094,-18.401 l 9.736,8.345 c -2.782,2.888 -3.638,6.098 -3.638,10.056 0,12.838 12.089,19.577 23.643,19.577 9.735,0 21.931,-4.279 21.931,-15.94 0,-11.554 -10.484,-14.228 -20.112,-14.335 V 5.349 h -13.373 v -40.011 c 0,-2.567 -1.498,-4.065 -4.065,-4.065 -2.247,0 -4.707,1.177 -6.205,2.888 v -11.554 c 1.605,-2.567 6.954,-3.423 9.735,-3.423 5.563,0 10.484,1.818 12.624,7.382 2.996,-5.243 8.666,-7.382 14.443,-7.382 8.558,0 14.763,7.168 14.763,15.512 0,6.526 -6.74,14.015 -12.945,14.764 C -8.024,-18.936 0,-11.019 0,0 m -18.615,-33.271 c 0,-4.066 -3.423,-6.633 -7.274,-6.633 -2.782,0 -5.67,1.07 -7.168,3.53 0,0.107 -0.535,1.07 -0.535,1.177 v 9.735 c 1.498,0.214 2.888,0.428 4.386,0.428 5.349,0 10.591,-2.032 10.591,-8.237"
             style="fill:#ddb22e;fill-opacity:1;fill-rule:nonzero;stroke:none"
             id="path63" /></g><g
           id="g65"
           transform="translate(257.3032,288.1345)"><path
             d="m 0,0 c 0,11.768 -9.521,21.396 -21.289,21.396 -11.768,0 -21.29,-9.628 -21.29,-21.396 0,-11.661 9.522,-21.289 21.29,-21.289 C -9.521,-21.289 0,-11.661 0,0 m -10.27,0 c 0.161,-3.018 -1.091,-5.763 -3.152,-7.746 -1.975,-2.076 -4.739,-3.372 -7.806,-3.372 -5.998,0 -10.861,4.939 -10.861,11.032 0,2.834 1.062,5.411 2.791,7.365 1.747,2.102 4.265,3.518 7.26,3.74 -0.017,-0.037 -0.021,-0.08 -0.037,-0.117 0.28,0.022 0.561,0.044 0.847,0.044 5.812,0 10.543,-4.64 10.833,-10.47 0.041,0.021 0.085,0.037 0.125,0.059 z"
             style="fill:#ddb22e;fill-opacity:1;fill-rule:nonzero;stroke:none"
             id="path67" /></g><g
           id="g69"
           transform="translate(314.7518,269.6268)"><path
             d="M 0,0 V 9.842 C -1.605,8.879 -3.53,8.024 -5.456,8.024 c -6.419,0 -8.452,9.949 -16.582,11.233 9.521,1.604 13.586,10.805 13.586,19.684 H -20.54 c 0,-8.13 -4.28,-14.977 -12.945,-14.87 V 74.245 H -45.681 V -1.712 h 12.196 v 15.62 l 0.321,0.107 c 12.517,0.107 12.731,-16.69 23.964,-16.69 3.102,0 6.632,0.749 9.2,2.675"
             style="fill:#ddb22e;fill-opacity:1;fill-rule:nonzero;stroke:none"
             id="path71" /></g><g
           id="g73"
           transform="translate(372.3072,269.6268)"><path
             d="m 0,0 v 9.842 c -1.284,-1.07 -2.888,-1.711 -4.493,-1.711 -2.354,0 -4.279,1.39 -4.279,3.851 v 26.959 h -12.196 v -4.707 c -3.21,3.851 -7.596,5.563 -12.624,5.563 -11.982,0 -19.685,-9.735 -19.685,-21.182 0,-11.554 7.703,-21.29 19.685,-21.29 5.777,0 10.698,2.354 13.8,7.275 1.926,-4.279 5.777,-7.275 10.485,-7.275 3.209,0 6.74,0.749 9.307,2.675 m -20.968,14.442 c -1.498,-4.065 -5.349,-6.953 -9.736,-6.953 -5.991,0 -10.484,5.242 -10.484,11.126 0,5.884 4.493,11.126 10.484,11.126 4.387,0 8.238,-2.889 9.736,-6.954 z"
             style="fill:#ddb22e;fill-opacity:1;fill-rule:nonzero;stroke:none"
             id="path75" /></g><g
           id="g77"
           transform="translate(407.6105,269.6268)"><path
             d="M 0,0 V 9.842 C -1.605,8.879 -3.53,8.024 -5.456,8.024 c -3.53,0 -4.921,2.995 -4.921,6.205 V 27.494 H 0 V 38.941 H -10.377 V 53.473 H -22.573 V 38.941 H -33.164 V 27.494 h 10.591 V 12.517 c 0,-9.201 4.814,-15.192 14.335,-15.192 3.103,0 5.777,0.749 8.238,2.675"
             style="fill:#ddb22e;fill-opacity:1;fill-rule:nonzero;stroke:none"
             id="path79" /></g><g
           id="g81"
           transform="translate(435.5684,328.635)"><path
             d="m 0,0 -7.985,5.445 -11.303,-17.022 6.776,-2.451 z"
             style="fill:#ddb22e;fill-opacity:1;fill-rule:nonzero;stroke:none"
             id="path83" /></g><g
           id="g85"
           transform="translate(439.1685,269.6268)"><path
             d="m 0,0 v 9.842 c -1.177,-1.07 -2.782,-1.711 -4.493,-1.711 -2.247,0 -4.279,1.39 -4.279,3.851 V 38.941 H -20.861 V 10.377 c 0,-6.633 4.6,-13.052 11.661,-13.052 3.102,0 6.632,0.749 9.2,2.675"
             style="fill:#ddb22e;fill-opacity:1;fill-rule:nonzero;stroke:none"
             id="path87" /></g><g
           id="g89"
           transform="translate(508.8804,325.3642)"><path
             d="m 0,0 c 0,4.6 -3.744,8.452 -8.345,8.452 -4.707,0 -8.451,-3.852 -8.451,-8.452 0,-4.6 3.744,-8.452 8.451,-8.452 C -3.744,-8.452 0,-4.6 0,0"
             style="fill:#ddb22e;fill-opacity:1;fill-rule:nonzero;stroke:none"
             id="path91" /></g><g
           id="g93"
           transform="translate(515.2993,269.6268)"><path
             d="m 0,0 v 9.842 c -1.177,-1.07 -2.781,-1.711 -4.493,-1.711 -2.247,0 -4.279,1.39 -4.279,3.851 V 38.941 H -20.861 V 10.377 c 0,-6.633 4.6,-13.052 11.661,-13.052 3.102,0 6.632,0.749 9.2,2.675"
             style="fill:#ddb22e;fill-opacity:1;fill-rule:nonzero;stroke:none"
             id="path95" /></g><g
           id="g97"
           transform="translate(568.469,269.6268)"><path
             d="m 0,0 v 9.842 c -1.284,-1.07 -2.889,-1.711 -4.493,-1.711 -2.247,0 -4.279,1.39 -4.279,3.851 v 13.052 c 0,8.023 -5.884,14.763 -14.229,14.763 -3.958,0 -8.024,-1.498 -10.484,-4.814 v 3.958 H -45.681 V -1.712 h 12.196 v 23.857 c 0,0.321 0.428,1.819 0.535,2.14 1.177,3.102 3.209,5.456 6.74,5.456 3.53,0 5.242,-2.782 5.242,-5.991 V 10.377 c 0,-6.633 4.6,-13.052 11.768,-13.052 3.102,0 6.632,0.749 9.2,2.675"
             style="fill:#ddb22e;fill-opacity:1;fill-rule:nonzero;stroke:none"
             id="path99" /></g><g
           id="g101"
           transform="translate(626.2385,269.6268)"><path
             d="m 0,0 v 9.842 c -1.284,-1.07 -2.889,-1.711 -4.493,-1.711 -2.354,0 -4.279,1.39 -4.279,3.851 V 74.245 H -20.968 V 33.913 c -3.21,4.065 -7.703,5.884 -12.838,5.884 -11.982,0 -19.685,-9.735 -19.685,-21.182 0,-11.554 7.703,-21.29 19.685,-21.29 5.884,0 10.805,2.461 14.014,7.489 1.712,-4.386 5.777,-7.489 10.485,-7.489 3.209,0 6.739,0.749 9.307,2.675 m -20.968,15.084 c 0,-0.321 -0.642,-1.604 -0.749,-1.818 -1.712,-3.531 -5.242,-5.777 -9.201,-5.777 -5.991,0 -10.484,5.242 -10.484,11.126 0,5.884 4.493,11.126 10.484,11.126 3.959,0 7.489,-2.354 9.201,-5.777 0.107,-0.214 0.749,-1.605 0.749,-1.819 z"
             style="fill:#ddb22e;fill-opacity:1;fill-rule:nonzero;stroke:none"
             id="path103" /></g><g
           id="g105"
           transform="translate(648.1689,325.3642)"><path
             d="m 0,0 c 0,4.6 -3.744,8.452 -8.345,8.452 -4.707,0 -8.451,-3.852 -8.451,-8.452 0,-4.6 3.744,-8.452 8.451,-8.452 C -3.744,-8.452 0,-4.6 0,0"
             style="fill:#ddb22e;fill-opacity:1;fill-rule:nonzero;stroke:none"
             id="path107" /></g><g
           id="g109"
           transform="translate(654.5878,269.6268)"><path
             d="m 0,0 v 9.842 c -1.177,-1.07 -2.781,-1.711 -4.493,-1.711 -2.247,0 -4.279,1.39 -4.279,3.851 V 38.941 H -20.861 V 10.377 c 0,-6.633 4.6,-13.052 11.661,-13.052 3.102,0 6.632,0.749 9.2,2.675"
             style="fill:#ddb22e;fill-opacity:1;fill-rule:nonzero;stroke:none"
             id="path111" /></g><g
           id="g113"
           transform="translate(247.1269,328.635)"><path
             d="m 0,0 -7.985,5.445 -11.303,-17.022 6.776,-2.451 z"
             style="fill:#ddb22e;fill-opacity:1;fill-rule:nonzero;stroke:none"
             id="path115" /></g></g></g><g
       id="g117"><g
         id="g119"
         clip-path="url(#clipPath123)"><g
           id="g125"
           transform="translate(272.895,294.1324)"><path
             d="M 0,0 C 0,0 0,-0.101 0.11,-0.101 Z"
             style="fill:#ffffff;fill-opacity:1;fill-rule:nonzero;stroke:none"
             id="path127" /></g><g
           id="g129"
           transform="translate(275.8531,288.9852)"><path
             d="M 0,0 C 0,0 0,0.101 -0.11,0.303 Z"
             style="fill:#ffffff;fill-opacity:1;fill-rule:nonzero;stroke:none"
             id="path131" /></g></g></g><g
       id="g133"><g
         id="g135"
         clip-path="url(#clipPath139)"><g
           id="g141"
           transform="translate(241.4509,290.3981)"><path
             d="M 0,0 V 0.202 Z"
             style="fill:#ffffff;fill-opacity:1;fill-rule:nonzero;stroke:none"
             id="path143" /></g></g></g><g
       id="g145"><g
         id="g147"
         clip-path="url(#clipPath151)"><g
           id="g153"
           transform="translate(355.3925,296.4537)"><path
             d="M 0,0 C 0,-0.101 -0.11,-0.101 -0.11,-0.101 Z"
             style="fill:#ffffff;fill-opacity:1;fill-rule:nonzero;stroke:none"
             id="path155" /></g></g></g><g
       id="g157"><g
         id="g159"
         clip-path="url(#clipPath163)"><g
           id="g165"
           transform="translate(460.5676,293.9306)"><path
             d="M 0,0 H 0.328 Z"
             style="fill:#ffffff;fill-opacity:1;fill-rule:nonzero;stroke:none"
             id="path167" /></g></g></g><g
       id="g169"><g
         id="g171"
         clip-path="url(#clipPath175)"><g
           id="g177"
           transform="translate(536.82,296.3528)"><path
             d="M 0,0 -0.11,0.101 C 0,0.101 0,0.101 0,0"
             style="fill:#ffffff;fill-opacity:1;fill-rule:nonzero;stroke:none"
             id="path179" /></g></g></g><g
       id="g181"><g
         id="g183"
         clip-path="url(#clipPath187)"><g
           id="g189"
           transform="translate(594.6667,293.9306)"><path
             d="M 0,0 H 0.328 Z"
             style="fill:#ffffff;fill-opacity:1;fill-rule:nonzero;stroke:none"
             id="path191" /></g></g></g><g
       id="g193"><g
         id="g195"
         clip-path="url(#clipPath199)"><g
           id="g201"
           transform="translate(644.0577,270.3862)"><path
             d="m 0,0 v 1.14 c -2.964,1.633 -5.34,6.275 -5.34,9.236 V 35.603 H -7.512 V 10.376 C -7.512,6.113 -4.114,1.133 0,0 m -28.29,0 v 1.14 c -2.965,1.633 -5.34,6.275 -5.34,9.236 v 60.34 h -2.173 v -60.34 c 0,-4.263 3.398,-9.243 7.513,-10.376 m -22.562,-0.856 v 1.295 c -8.319,0.019 -15.057,8.609 -15.057,17.424 0,8.815 6.738,17.405 15.057,17.425 v 1.295 c -9.746,-0.02 -17.641,-8.393 -17.641,-18.72 0,-10.326 7.895,-18.699 17.641,-18.719 m -35.883,0 v 1.14 c -2.965,1.633 -5.34,7.131 -5.34,10.092 v 4.422 h 0.005 v 9.194 c 0,4.263 -3.398,6.414 -7.513,7.547 v -0.916 c 2.906,-1.244 5.335,-2.946 5.34,-6.631 V 19.26 h -0.005 v -8.884 c 0,-4.263 3.399,-10.099 7.513,-11.232 m -31.687,2.254 h 2.173 v 33.743 h -2.173 z M -139.12,0 v 1.14 c -2.965,1.633 -5.34,6.275 -5.34,9.236 v 25.227 h -2.173 V 10.376 c 0,-4.263 3.398,-9.243 7.513,-10.376 m -29.531,28.956 c 0.005,0.026 -2.546,4.82 -2.546,4.82 -0.004,0.002 -0.009,0.004 -0.013,0.006 l -18.084,34.022 -1.918,-1.02 16.856,-31.712 c -1.754,0.613 -3.584,1.045 -5.542,1.049 -9.746,-0.019 -17.641,-8.057 -17.641,-17.969 0,-9.914 7.895,-17.951 17.641,-17.97 v 1.243 c -8.319,0.019 -15.057,8.264 -15.057,16.727 0,8.461 6.738,16.707 15.057,16.726 4.473,-0.01 8.49,-2.399 11.247,-5.922 M -215.59,0 v 1.14 c -2.964,1.633 -5.34,6.275 -5.34,9.236 v 25.227 h -2.172 V 10.376 c 0,-4.263 3.398,-9.243 7.512,-10.376 m -33.007,0 v 1.14 c -2.965,1.633 -5.34,6.275 -5.34,9.236 v 38.835 h -2.173 V 10.376 c 0,-4.263 3.398,-9.243 7.513,-10.376 m -33.76,0 v 1.14 c -2.964,1.633 -5.339,6.275 -5.339,9.236 v 25.227 h -2.173 V 10.376 c 0,-4.263 3.398,-9.243 7.512,-10.376 m -21.841,-0.856 v 1.295 c -8.318,0.019 -15.057,8.609 -15.057,17.424 0,8.815 6.739,17.405 15.057,17.425 v 1.295 c -9.746,-0.02 -17.641,-8.393 -17.641,-18.72 0,-10.326 7.895,-18.699 17.641,-18.719 m -41.694,36.703 h -1.295 c -0.018,-7.769 -7.511,-14.158 -15.682,-14.969 v -1.67 c 9.51,0.829 16.959,7.447 16.977,16.639 M -372.23,1.633 h 2.282 v 69.084 h -2.282 z m -36.472,-2.489 v 1.295 c -8.318,0.019 -15.057,8.609 -15.057,17.424 0,8.815 6.739,17.405 15.057,17.425 v 1.295 c -9.746,-0.02 -17.641,-8.393 -17.641,-18.72 0,-10.326 7.895,-18.699 17.641,-18.719 m -32.792,48.004 c 0,9.767 -11.306,16.986 -19.026,17.242 v -0.762 c 6.804,-0.803 16.443,-8.143 16.443,-16.48 0,-8.337 -6.739,-15.999 -15.058,-16.017 v -0.763 c 9.746,0.019 17.641,7.014 17.641,16.78 m -34.029,-34.925 v 36.988 h -2.173 V 12.223 c 0,-3.642 -3.132,-6.596 -6.996,-6.596 -0.928,0 -1.813,0.379 -2.623,0.689 v -1.35 c 0.877,-0.603 1.962,-1.051 3.029,-1.051 4.84,0 8.763,3.465 8.763,8.308 m -20.606,46.282 -1.374,1.309 c -7.462,-10.145 -6.369,-23.452 -1.058,-31.155 l 1.254,0.969 c -4.308,6.623 -4.974,19.976 1.178,28.877 m 37.676,-33.742 v -1.036 c 4.771,-0.763 8.77,-3.773 8.77,-8.533 0,-5.106 -3.489,-8.657 -8.77,-9.203 V 5.308 c 7.164,0.376 10.996,3.765 10.996,9.886 0,5.715 -5.185,8.885 -10.996,9.569"
             style="fill:#ffffff;fill-opacity:1;fill-rule:nonzero;stroke:none"
             id="path203" /></g></g></g></g></svg>
