<?xml version="1.0" encoding="UTF-8"?>
<!-- Created with Inkscape (http://www.inkscape.org/) -->
<svg width="512" height="512" version="1.1" viewBox="0 0 512 512" xmlns="http://www.w3.org/2000/svg">
 <g transform="matrix(.35491 0 0 .35491 31 235.62)">
  <path id="&lt;Path&gt;" class="shp0" d="m545.9 203c8.24-5 14.69-12.84 17.88-22.46l44-132.69c4.82-14.56 18.37-24.35 33.71-24.35h586.72c9.08 0 17.55 2.91 23.85 8.18 8.17 6.82 12.85 16.79 12.84 27.36l-0.05 107.8c-0.01 19.94-16.24 36.16-36.18 36.16z"/>
  <g id="&lt;Group&gt;">
   <path class="shp1" d="m712.14 138.37c6.55-0.34 7.06-0.6 7.06-5.11v-42.74c0-4.51-0.51-4.77-7.06-5.11v-2.98h44.87v15.08h-3.07c-2.04-8.52-3.75-11.5-12.86-11.5h-7.06c-2.56 0-3.07 0.59-3.07 3.07v19.49h9.45c6.05 0 6.9-1.7 8.01-7.58h2.98v19.08h-2.98c-1.11-5.88-1.96-7.5-8.01-7.5h-9.45v18.48c0 3.74 0.68 5.62 2.47 6.13 1.87 0.59 4.34 0.59 8.17 0.59 10.22 0 12.6-3.48 15.25-13.02h2.98l-1.02 16.6h-46.66z"/>
   <path class="shp1" d="m877.57 138.37v2.98h-22.22v-2.98l2.21-0.17c2.3-0.17 2.98-0.77 2.98-3.91v-20.78c0-6.13-2.89-9.03-7.4-9.03-3.67 0-6.81 2.13-8 6.05-0.35 1.11-0.43 2.64-0.43 4.26v19.5c0 3.06 0.68 3.74 3.06 3.91l2.13 0.17v2.98h-21.54v-2.98l2.13-0.17c2.38-0.17 3.07-0.77 3.07-3.91v-20.78c0-5.02-1.62-9.03-6.9-9.03-3.92 0-7.24 2.3-8.43 6.13-0.43 1.19-0.51 2.56-0.51 4.18v19.5c0 3.14 0.68 3.74 3.06 3.91l2.13 0.17v2.98h-22.14v-2.98c5.28-0.25 5.79-0.6 5.79-4.43v-25.71c0-3.23-0.25-5-2.15-5.55-0.69-0.19-1.61-0.3-3.03 1.06-0.6 0.57-1.54 2.06-2.39 4.06-4.17 9.97-10.3 25.46-15.33 39.34-4.51 12.35-8.51 14.81-13.53 14.81-3.75 0-6.56-2.12-6.56-5.1 0-2.9 2.55-6.05 4.85-6.05 1.28 0 1.96 0.34 3.41 1.62 1.19 1.02 2.13 1.45 3.06 1.45 1.62 0 2.64-1.71 3.5-4 0.59-1.71 0.84-3.41 0.76-4.94-0.09-0.94-0.26-1.88-0.6-2.73-3.66-9.71-9.45-24.26-14.13-35.5-1.02-2.39-1.87-3.41-3.32-3.67l-2.9-0.42v-2.98h22.23v2.98l-3.32 0.34c-1.62 0.17-1.62 1.19-1.11 2.81 2.81 8.34 6.05 16.78 9.19 25.29h0.18c3.06-8.6 6.3-18.31 8.42-25.29 0.52-1.7 0-2.55-1.27-2.73l-3.83-0.42v-2.97h21.45l6.38-1.03 1.2 6.13c4.09-2.55 8.51-6.13 14.39-6.13 6.3 0 9.62 3.07 11.58 6.47 3.4-2.3 8.6-6.47 14.9-6.47 8.77 0 13.11 5.02 13.11 13.28v22.05c0 3.83 0.59 4.18 5.87 4.43z"/>
   <path class="shp1" d="m908.56 136.5c-3.07 1.62-8.01 5.87-15.24 5.87-6.22 0-12.27-2.89-12.27-12.77v-21.37c0-3.24-0.59-3.83-2.29-4.09l-3.07-0.42v-2.73l15.92-2.38 0.6 0.51v27.84c0 6.64 3.15 9.54 7.58 9.54 3.91 0 6.89-2.3 8.08-4.94 0.51-1.11 0.69-3.15 0.69-4.94v-18.39c0-3.24-0.6-3.83-2.3-4.09l-3.07-0.42v-2.73l15.92-2.38 0.6 0.51v34.82c0 3.83 0.59 4.18 5.79 4.43v2.98h-16.18z"/>
   <path class="shp1" d="m927.49 138.37c5.28-0.25 5.79-0.6 5.79-4.43v-25.71c0-3.23-0.6-3.83-2.22-4.09l-3.15-0.42v-2.73l15.33-2.38 1.19 6.13c5.45-3.41 9.45-6.13 14.82-6.13 8.51 0 12.77 5.02 12.77 13.28v22.05c0 3.83 0.59 4.18 5.87 4.43v2.98h-22.22v-2.98l2.21-0.17c2.3-0.17 2.98-0.77 2.98-3.91v-21.04c0-5.96-2.72-8.77-7.49-8.77-3.92 0-6.72 2.22-8.09 4.86-0.68 1.27-0.85 2.89-0.85 4.94v20.01c0 3.14 0.68 3.74 3.07 3.91l2.13 0.17v2.98h-22.14z"/>
   <path id="&lt;Compound Path&gt;" class="shp1" d="m1007.9 136.92c-4.6 3.67-9.03 5.45-12.69 5.45-10.98 0-17.37-8.6-17.37-21.11 0-7.67 2.39-13.2 6.3-17.03 3.66-3.58 9.2-5.62 16.18-5.62 2.9 0 5.53 0.42 7.58 1.19v-12.01c0-3.31-0.6-3.91-2.3-4.17l-3.07-0.51v-2.72l15.93-2.22 0.59 0.52v55.25c0 3.83 0.6 4.18 5.88 4.43v2.98h-16.77l-0.26-0.42zm0-25.71c0-1.96 0-3.57-0.68-4.94-1.19-2.3-3.41-4.08-6.9-4.08-6.13 0-10.56 5.7-10.56 17.62 0 10.55 3.75 16.69 10.13 16.69 4.01 0 6.48-1.79 7.5-4.77 0.42-1.28 0.51-2.56 0.51-3.83z" fill-rule="evenodd"/>
   <path class="shp1" d="m1053 112.4c-1.28-6.04-4.86-10.21-9.54-10.21-3.83 0-6.3 2.38-6.3 5.62-0.09 3.99 4.34 5.87 8.77 7.4 8.17 2.9 12.77 6.39 12.77 13.8 0 8.26-6.47 13.36-16.86 13.36-4.85 0-10.98-1.19-14.04-4l-0.94-12.26h2.89c2.04 7.15 6.3 12.69 12.43 12.69 4.01 0 6.56-2.22 6.56-5.88 0-4.6-4.51-6.98-8.43-8.34-7.24-2.47-12.94-6.13-12.94-12.86 0-8.43 6.38-13.11 16.34-13.11 4.26 0 8.94 0.85 12.18 2.9v10.89z"/>
   <path class="shp1" d="m1088.2 112.4c-1.28-6.04-4.86-10.21-9.54-10.21-3.83 0-6.29 2.38-6.29 5.62-0.1 3.99 4.33 5.87 8.76 7.4 8.17 2.9 12.77 6.39 12.77 13.8 0 8.26-6.47 13.36-16.85 13.36-4.86 0-10.99-1.19-14.05-4l-0.94-12.26h2.89c2.05 7.15 6.31 12.69 12.43 12.69 4.01 0 6.56-2.22 6.56-5.88 0-4.6-4.51-6.98-8.43-8.34-7.23-2.47-12.94-6.13-12.94-12.86 0-8.43 6.39-13.11 16.35-13.11 4.26 0 8.94 0.85 12.17 2.9v10.89z"/>
   <path class="shp1" d="m1096.8 120.49c0-13.71 6.56-21.88 21.37-21.88 14.9 0 21.46 8.17 21.46 21.88s-6.56 21.88-21.46 21.88c-14.81 0-21.37-8.17-21.37-21.88zm30.91 0c0-11.5-2.89-18.3-9.54-18.3-6.55 0-9.45 6.8-9.45 18.3 0 11.49 2.9 18.31 9.45 18.31 6.65 0 9.54-6.82 9.54-18.31z" fill-rule="evenodd"/>
   <path class="shp1" d="m1140.7 138.37c5.28-0.25 5.79-0.6 5.79-4.43v-25.71c0-3.23-0.6-3.83-2.21-4.09l-3.16-0.42v-2.73l15.33-2.38 1.19 6.13c5.45-3.41 9.45-6.13 14.82-6.13 8.51 0 12.77 5.02 12.77 13.28v22.05c0 3.83 0.59 4.18 5.87 4.43v2.98h-22.22v-2.98l2.21-0.17c2.3-0.17 2.98-0.77 2.98-3.91v-21.04c0-5.96-2.72-8.77-7.49-8.77-3.92 0-6.72 2.22-8.09 4.86-0.68 1.27-0.85 2.89-0.85 4.94v20.01c0 3.14 0.68 3.74 3.07 3.91l2.13 0.17v2.98h-22.14z"/>
  </g>
  <path class="shp2" d="m39.69 181.5c-9.07 0-17.54-2.9-23.85-8.18-8.16-6.82-12.84-16.79-12.84-27.35l0.06-107.8c0.01-19.95 16.24-36.17 36.18-36.17h643.49c-8.25 5-14.7 12.84-17.89 22.46l-43.99 132.69c-4.83 14.56-18.38 24.35-33.72 24.35z"/>
  <path class="shp1" d="m1267.9 59.04-0.06 107.8c-0.01 21.63-17.55 39.16-39.18 39.16h-704.3c14.84 0 28.12-8.46 34.53-21.5h-519.21c-9.34 0-18.61-2.88-25.77-8.87-8.95-7.48-13.92-18.19-13.92-29.66l0.06-107.81c0.01-21.63 17.54-39.16 39.18-39.16h665.01c-14.84 0-28.12 8.47-34.53 21.5h558.49c9.34 0 18.61 2.89 25.78 8.88 8.94 7.47 13.92 18.18 13.92 29.66zm-680.78 119.46c14.05 0 26.45-8.96 30.87-22.29l43.01-129.71 0.99-2.98c0.34-1.03 0.72-2.03 1.13-3.02 2.47-5.98 6.14-11.23 10.7-15.5h-634.59c-18.29 0-33.18 14.88-33.18 33.17l-0.06 107.8c0 9.81 4.17 18.71 11.76 25.05 5.77 4.82 13.56 7.48 21.93 7.48zm674.78-119.46c0-9.82-4.18-18.72-11.77-25.06-5.77-4.82-13.55-7.48-21.93-7.48h-560.88l-43.64 131.6c-5.23 15.79-19.92 26.4-36.56 26.4h-21.63c-2.47 5.98-6.15 11.24-10.7 15.5h673.87c18.29 0 33.17-14.88 33.18-33.16z" fill-rule="evenodd"/>
  <path class="shp2" d="m112.39 143.21c-17.74-0.55-36.46-27.1-36.49-51.65 0.03-25.13 18.18-51.21 35.97-51.68h333.05c4.99 0.2 11.66 3.08 14.36 8.01 10.23 17.25 33.69 26.43 69.7 27.21h33.4v32.9l-33.35-0.01c-36 0.75-59.5 9.92-69.79 27.27-2.67 4.88-9.34 7.76-14.24 7.96h-0.04z"/>
  <path class="shp1" d="m351.37 125.19v-36.95c0.03-0.93 0.04-1.89 0.01-2.87 2.06-3.2 3.24-6.98 3.24-11.13 0-4.93-1.66-9.5-4.48-13.26 16.6-9.36 33.15 0.5 38.98 14.51 1.47 3.48 2.29 7.12 2.29 10.77v38.93h-22.25v-26.83c0-2.04-1.42-3.69-3.17-3.69s-3.17 1.65-3.17 3.69v26.83z"/>
  <path class="shp1" d="m397.42 125.19v-36.95c0.24-6.71-0.9-14.33-5.72-20.95-0.41-0.75-0.98-1.41-1.47-2.08 0.49-0.41 0.9-0.74 1.3-1.07 18.06-14.33 37.27-3.98 43.64 11.35 1.47 3.48 2.29 7.12 2.29 10.77v38.93h-22.27v-26.83c0-2.04-1.41-3.69-3.16-3.69s-3.17 1.65-3.17 3.69v26.83z"/>
  <path class="shp1" d="m176.53 61.77c4.98-2.92 10.75-4.59 16.9-4.59 18.55 0 33.61 15.18 33.84 34.01h-27.77c-2.04 0-3.69 1.41-3.69 3.16s1.65 3.17 3.69 3.17h27.29c-2.75 16.23-16.64 28.57-33.36 28.57-8.54 0-16.35-3.22-22.3-8.54 2.64-1.38 4.94-3.1 6.92-5.08 0.05-0.05 1.17-1.14 1.25-1.22 2.46-2.7 4.42-5.84 5.8-9.24 3.63-8.84 3.63-19.15 0-27.98-1.87-4.68-4.74-8.93-8.57-12.26z"/>
  <path class="shp1" d="m152.88 117.47h-9.82v8.11h-23.03v-68.09h32.85c13.48 0 22.47 7.7 26.48 17.48 3.35 7.95 3.35 17.23 0 25.18-1.27 3.06-3.09 5.88-5.36 8.32l-1.15 1.09c-4.65 4.57-11.31 7.58-19.97 7.91zm3.26-23.96c1.47-0.91 2.61-2.57 2.61-4.56 0.14-3.42-2.18-5.26-4.74-5.88l-1.63-0.24h-9.22v11.59h9.87c1.07 0 2.13-0.33 3.11-0.91z" fill-rule="evenodd"/>
  <path class="shp1" d="m268.95 78.14c0.82 2.4 1.23 4.89 1.31 7.29v39.76l-21.96 0.07v-26.9c0-2.04-1.42-3.69-3.17-3.69s-3.17 1.65-3.17 3.69v26.91l-29.04 0.09c0.5-0.17 0.99-0.38 1.47-0.58 1.66-0.69 15.34-8.26 18.39-26.6 1.53-9.48-0.25-19.97-6.81-29.24l-0.82-1.16c-0.65-0.91-1.39-1.82-2.12-2.73 0.73-0.58 1.39-1.16 2.12-1.74 1.58-1.17 3.14-2.16 4.7-2.99 1.03-0.55 2.05-1.04 3.06-1.48 8.87-3.48 17.29-1.7 23.87 2.81 5.86 4.04 10.19 10.09 12.17 16.49z"/>
  <path class="shp1" d="m322.29 95.08c2.37 0.78 4.89 1.22 7.51 1.22 5.88 0 11.29-1.66 15.57-4.55v33.44h-23.08v-18.96z"/>
  <path class="shp1" d="m315.87 64.81c3.15-4.52 8.6-7.5 14.79-7.5 9.75 0 17.92 7.39 17.92 16.52 0 9.12-8.17 16.52-17.92 16.52-3.03 0-5.88-0.72-8.37-1.97v-3.41c0-4.58-1.03-9.17-2.88-13.55-0.96-2.31-2.15-4.52-3.54-6.61z"/>
  <path class="shp1" d="m276.25 125.19v-36.95c0.25-6.71-0.9-14.33-5.72-20.95-0.41-0.75-0.98-1.41-1.47-2.08 0.49-0.41 0.9-0.74 1.31-1.07 18.06-14.33 37.26-3.98 43.64 11.35 1.47 3.48 2.28 7.12 2.28 10.77v38.93h-22.26v-26.83c0-2.04-1.42-3.69-3.17-3.69s-3.16 1.65-3.16 3.69v26.83z"/>
  <path class="shp1" d="m564.33 73.15v36.8h-35.22c-35.29 0.72-58.22 9.56-68.16 26.26-3.1 5.58-10.32 8.73-15.87 8.96h-332.75l-0.06-0.01c-18.95-0.59-38.29-27.64-38.32-53.61 0.03-26.06 19.14-53.12 37.87-53.62h333.26c5.55 0.23 12.77 3.38 15.87 8.95 9.91 16.67 32.82 25.5 68 26.26l3.32 0.01zm-3.9 32.9v-12.63h-94.04c-0.86 3.18-3.77 5.52-7.23 5.52-4.14 0-7.5-3.36-7.5-7.5s3.36-7.5 7.5-7.5c3.46 0 6.37 2.34 7.23 5.53h94.04v-12.42h-28.16l-3.33-0.01c-23.46-0.5-57.45-4.73-71.37-28.22-2.19-3.98-7.89-6.79-12.65-6.99h-333c-16.96 0.45-34.04 26.32-34.07 49.73 0.03 23.36 17.61 49.18 34.54 49.71h332.53c4.76-0.2 10.46-3.01 12.65-7 13.94-23.51 47.99-27.74 71.46-28.22h3.24z" fill-rule="evenodd"/>
 </g>
 <style>tspan { white-space:pre }
		.shp0 { fill: #194e2d } 
		.shp1 { fill: #ffffff } 
		.shp2 { fill: #1983c5 }</style>
</svg>
