<svg version="1.2" baseProfile="tiny-ps" xmlns="http://www.w3.org/2000/svg" viewBox="0 0 1268 206" width="300" height="49">
	<title>Penninn-Eymundsson_Logo_CMYK-ai</title>
	<style>
		tspan { white-space:pre }
		.shp0 { fill: #194e2d } 
		.shp1 { fill: #ffffff } 
		.shp2 { fill: #1983c5 } 
	</style>
	<g id="Layer 1">
		<path id="&lt;Path&gt;" class="shp0" d="M545.9 203C554.14 198 560.59 190.16 563.78 180.54L607.78 47.85C612.6 33.29 626.15 23.5 641.49 23.5L1228.21 23.5C1237.29 23.5 1245.76 26.41 1252.06 31.68C1260.23 38.5 1264.91 48.47 1264.9 59.04L1264.85 166.84C1264.84 186.78 1248.61 203 1228.67 203L545.9 203Z" />
		<g id="&lt;Group&gt;">
			<path id="&lt;Path&gt;" class="shp1" d="M712.14 138.37C718.69 138.03 719.2 137.77 719.2 133.26L719.2 90.52C719.2 86.01 718.69 85.75 712.14 85.41L712.14 82.43L757.01 82.43L757.01 97.51L753.94 97.51C751.9 88.99 750.19 86.01 741.08 86.01L734.02 86.01C731.46 86.01 730.95 86.6 730.95 89.08L730.95 108.57L740.4 108.57C746.45 108.57 747.3 106.87 748.41 100.99L751.39 100.99L751.39 120.07L748.41 120.07C747.3 114.19 746.45 112.57 740.4 112.57L730.95 112.57L730.95 131.05C730.95 134.79 731.63 136.67 733.42 137.18C735.29 137.77 737.76 137.77 741.59 137.77C751.81 137.77 754.19 134.29 756.84 124.75L759.82 124.75L758.8 141.35L712.14 141.35L712.14 138.37Z" />
			<path id="&lt;Path&gt;" class="shp1" d="M877.57 138.37L877.57 141.35L855.35 141.35L855.35 138.37L857.56 138.2C859.86 138.03 860.54 137.43 860.54 134.29L860.54 113.51C860.54 107.38 857.65 104.48 853.14 104.48C849.47 104.48 846.33 106.61 845.14 110.53C844.79 111.64 844.71 113.17 844.71 114.79L844.71 134.29C844.71 137.35 845.39 138.03 847.77 138.2L849.9 138.37L849.9 141.35L828.36 141.35L828.36 138.37L830.49 138.2C832.87 138.03 833.56 137.43 833.56 134.29L833.56 113.51C833.56 108.49 831.94 104.48 826.66 104.48C822.74 104.48 819.42 106.78 818.23 110.61C817.8 111.8 817.72 113.17 817.72 114.79L817.72 134.29C817.72 137.43 818.4 138.03 820.78 138.2L822.91 138.37L822.91 141.35L800.77 141.35L800.77 138.37C806.05 138.12 806.56 137.77 806.56 133.94L806.56 108.23C806.56 105 806.31 103.23 804.41 102.68C803.72 102.49 802.8 102.38 801.38 103.74C800.78 104.31 799.84 105.8 798.99 107.8C794.82 117.77 788.69 133.26 783.66 147.14C779.15 159.49 775.15 161.95 770.13 161.95C766.38 161.95 763.57 159.83 763.57 156.85C763.57 153.95 766.12 150.8 768.42 150.8C769.7 150.8 770.38 151.14 771.83 152.42C773.02 153.44 773.96 153.87 774.89 153.87C776.51 153.87 777.53 152.16 778.39 149.87C778.98 148.16 779.23 146.46 779.15 144.93C779.06 143.99 778.89 143.05 778.55 142.2C774.89 132.49 769.1 117.94 764.42 106.7C763.4 104.31 762.55 103.29 761.1 103.03L758.2 102.61L758.2 99.63L780.43 99.63L780.43 102.61L777.11 102.95C775.49 103.12 775.49 104.14 776 105.76C778.81 114.1 782.05 122.54 785.19 131.05L785.37 131.05C788.43 122.45 791.67 112.74 793.79 105.76C794.31 104.06 793.79 103.21 792.52 103.03L788.69 102.61L788.69 99.64L810.14 99.64L816.52 98.61L817.72 104.74C821.81 102.19 826.23 98.61 832.11 98.61C838.41 98.61 841.73 101.68 843.69 105.08C847.09 102.78 852.29 98.61 858.59 98.61C867.36 98.61 871.7 103.63 871.7 111.89L871.7 133.94C871.7 137.77 872.29 138.12 877.57 138.37Z" />
			<path id="&lt;Path&gt;" class="shp1" d="M908.56 136.5C905.49 138.12 900.55 142.37 893.32 142.37C887.1 142.37 881.05 139.48 881.05 129.6L881.05 108.23C881.05 104.99 880.46 104.4 878.76 104.14L875.69 103.72L875.69 100.99L891.61 98.61L892.21 99.12L892.21 126.96C892.21 133.6 895.36 136.5 899.79 136.5C903.7 136.5 906.68 134.2 907.87 131.56C908.38 130.45 908.56 128.41 908.56 126.62L908.56 108.23C908.56 104.99 907.96 104.4 906.26 104.14L903.19 103.72L903.19 100.99L919.11 98.61L919.71 99.12L919.71 133.94C919.71 137.77 920.3 138.12 925.5 138.37L925.5 141.35L909.32 141.35L908.56 136.5Z" />
			<path id="&lt;Path&gt;" class="shp1" d="M927.49 138.37C932.77 138.12 933.28 137.77 933.28 133.94L933.28 108.23C933.28 105 932.68 104.4 931.06 104.14L927.91 103.72L927.91 100.99L943.24 98.61L944.43 104.74C949.88 101.33 953.88 98.61 959.25 98.61C967.76 98.61 972.02 103.63 972.02 111.89L972.02 133.94C972.02 137.77 972.61 138.12 977.89 138.37L977.89 141.35L955.67 141.35L955.67 138.37L957.88 138.2C960.18 138.03 960.86 137.43 960.86 134.29L960.86 113.25C960.86 107.29 958.14 104.48 953.37 104.48C949.45 104.48 946.65 106.7 945.28 109.34C944.6 110.61 944.43 112.23 944.43 114.28L944.43 134.29C944.43 137.43 945.11 138.03 947.5 138.2L949.63 138.37L949.63 141.35L927.49 141.35L927.49 138.37Z" />
			<path id="&lt;Compound Path&gt;" fill-rule="evenodd" class="shp1" d="M1007.88 136.92C1003.28 140.59 998.85 142.37 995.19 142.37C984.21 142.37 977.82 133.77 977.82 121.26C977.82 113.59 980.21 108.06 984.12 104.23C987.78 100.65 993.32 98.61 1000.3 98.61C1003.2 98.61 1005.83 99.03 1007.88 99.8L1007.88 87.79C1007.88 84.48 1007.28 83.88 1005.58 83.62L1002.51 83.11L1002.51 80.39L1018.44 78.17L1019.03 78.69L1019.03 133.94C1019.03 137.77 1019.63 138.12 1024.91 138.37L1024.91 141.35L1008.14 141.35L1007.88 140.93L1007.88 136.92ZM1007.88 111.21C1007.88 109.25 1007.88 107.64 1007.2 106.27C1006.01 103.97 1003.79 102.19 1000.3 102.19C994.17 102.19 989.74 107.89 989.74 119.81C989.74 130.36 993.49 136.5 999.87 136.5C1003.88 136.5 1006.35 134.71 1007.37 131.73C1007.79 130.45 1007.88 129.17 1007.88 127.9L1007.88 111.21Z" />
			<path id="&lt;Path&gt;" class="shp1" d="M1052.99 112.4C1051.71 106.36 1048.13 102.19 1043.45 102.19C1039.62 102.19 1037.15 104.57 1037.15 107.81C1037.06 111.8 1041.49 113.68 1045.92 115.21C1054.09 118.11 1058.69 121.6 1058.69 129.01C1058.69 137.27 1052.22 142.37 1041.83 142.37C1036.98 142.37 1030.85 141.18 1027.79 138.37L1026.85 126.11L1029.74 126.11C1031.78 133.26 1036.04 138.8 1042.17 138.8C1046.18 138.8 1048.73 136.58 1048.73 132.92C1048.73 128.32 1044.22 125.94 1040.3 124.58C1033.06 122.11 1027.36 118.45 1027.36 111.72C1027.36 103.29 1033.74 98.61 1043.7 98.61C1047.96 98.61 1052.64 99.46 1055.88 101.51L1055.88 112.4L1052.99 112.4Z" />
			<path id="&lt;Path&gt;" class="shp1" d="M1088.2 112.4C1086.92 106.36 1083.34 102.19 1078.66 102.19C1074.83 102.19 1072.37 104.57 1072.37 107.81C1072.27 111.8 1076.7 113.68 1081.13 115.21C1089.3 118.11 1093.9 121.6 1093.9 129.01C1093.9 137.27 1087.43 142.37 1077.05 142.37C1072.19 142.37 1066.06 141.18 1063 138.37L1062.06 126.11L1064.95 126.11C1067 133.26 1071.26 138.8 1077.38 138.8C1081.39 138.8 1083.94 136.58 1083.94 132.92C1083.94 128.32 1079.43 125.94 1075.51 124.58C1068.28 122.11 1062.57 118.45 1062.57 111.72C1062.57 103.29 1068.96 98.61 1078.92 98.61C1083.18 98.61 1087.86 99.46 1091.09 101.51L1091.09 112.4L1088.2 112.4Z" />
			<path id="&lt;Compound Path&gt;" fill-rule="evenodd" class="shp1" d="M1096.77 120.49C1096.77 106.78 1103.33 98.61 1118.14 98.61C1133.04 98.61 1139.6 106.78 1139.6 120.49C1139.6 134.2 1133.04 142.37 1118.14 142.37C1103.33 142.37 1096.77 134.2 1096.77 120.49ZM1127.68 120.49C1127.68 108.99 1124.79 102.19 1118.14 102.19C1111.59 102.19 1108.69 108.99 1108.69 120.49C1108.69 131.98 1111.59 138.8 1118.14 138.8C1124.79 138.8 1127.68 131.98 1127.68 120.49Z" />
			<path id="&lt;Path&gt;" class="shp1" d="M1140.74 138.37C1146.02 138.12 1146.53 137.77 1146.53 133.94L1146.53 108.23C1146.53 105 1145.93 104.4 1144.32 104.14L1141.16 103.72L1141.16 100.99L1156.49 98.61L1157.68 104.74C1163.13 101.33 1167.13 98.61 1172.5 98.61C1181.01 98.61 1185.27 103.63 1185.27 111.89L1185.27 133.94C1185.27 137.77 1185.86 138.12 1191.14 138.37L1191.14 141.35L1168.92 141.35L1168.92 138.37L1171.13 138.2C1173.43 138.03 1174.11 137.43 1174.11 134.29L1174.11 113.25C1174.11 107.29 1171.39 104.48 1166.62 104.48C1162.7 104.48 1159.9 106.7 1158.53 109.34C1157.85 110.61 1157.68 112.23 1157.68 114.28L1157.68 134.29C1157.68 137.43 1158.36 138.03 1160.75 138.2L1162.88 138.37L1162.88 141.35L1140.74 141.35L1140.74 138.37Z" />
		</g>
		<path id="&lt;Path&gt;" class="shp2" d="M39.69 181.5C30.62 181.5 22.15 178.6 15.84 173.32C7.68 166.5 3 156.53 3 145.97L3.06 38.17C3.07 18.22 19.3 2 39.24 2L682.73 2C674.48 7 668.03 14.84 664.84 24.46L620.85 157.15C616.02 171.71 602.47 181.5 587.13 181.5L39.69 181.5Z" />
		<path id="&lt;Compound Path&gt;" fill-rule="evenodd" class="shp1" d="M1267.91 59.04L1267.85 166.84C1267.84 188.47 1250.3 206 1228.67 206L524.37 206C524.37 206 524.37 206 524.37 206C539.21 206 552.49 197.54 558.9 184.5L39.69 184.5C30.35 184.5 21.08 181.62 13.92 175.63C4.97 168.15 0 157.44 0 145.97L0.06 38.16C0.07 16.53 17.6 -1 39.24 -1L704.25 -1C689.41 -1 676.13 7.47 669.72 20.5L1228.21 20.5C1237.55 20.5 1246.82 23.39 1253.99 29.38C1262.93 36.85 1267.91 47.56 1267.91 59.04ZM587.13 178.5C601.18 178.5 613.58 169.54 618 156.21L661.01 26.5L662 23.52C662.34 22.49 662.72 21.49 663.13 20.5C665.6 14.52 669.27 9.27 673.83 5L39.24 5C20.95 5 6.06 19.88 6.06 38.17L6 145.97C6 155.78 10.17 164.68 17.76 171.02C23.53 175.84 31.32 178.5 39.69 178.5L587.13 178.5ZM1261.91 59.04C1261.91 49.22 1257.73 40.32 1250.14 33.98C1244.37 29.16 1236.59 26.5 1228.21 26.5L667.33 26.5L623.69 158.1C618.46 173.89 603.77 184.5 587.13 184.5L565.5 184.5C563.03 190.48 559.35 195.74 554.8 200L1228.67 200C1246.96 200 1261.84 185.12 1261.85 166.84L1261.91 59.04Z" />
		<path id="&lt;Path&gt;" class="shp2" d="M112.39 143.21C94.65 142.66 75.93 116.11 75.9 91.56C75.93 66.43 94.08 40.35 111.87 39.88L444.92 39.88C449.91 40.08 456.58 42.96 459.28 47.89C469.51 65.14 492.97 74.32 528.98 75.1L562.38 75.1L562.38 108L529.03 107.99C493.03 108.74 469.53 117.91 459.24 135.26C456.57 140.14 449.9 143.02 445 143.22L444.96 143.22L112.39 143.21Z" />
		<path id="&lt;Path&gt;" class="shp1" d="M351.37 125.19L351.37 119.81L351.37 94.38L351.37 88.24C351.4 87.31 351.41 86.35 351.38 85.37C353.44 82.17 354.62 78.39 354.62 74.24C354.62 69.31 352.96 64.74 350.14 60.98C366.74 51.62 383.29 61.48 389.12 75.49C390.59 78.97 391.41 82.61 391.41 86.26L391.41 103.16L391.41 125.19L369.16 125.19L369.16 98.36C369.16 96.32 367.74 94.67 365.99 94.67C364.24 94.67 362.82 96.32 362.82 98.36L362.82 125.19L351.37 125.19Z" />
		<path id="&lt;Path&gt;" class="shp1" d="M397.42 125.19L397.42 119.81L397.42 94.38L397.42 88.24C397.66 81.53 396.52 73.91 391.7 67.29C391.29 66.54 390.72 65.88 390.23 65.21C390.72 64.8 391.13 64.47 391.53 64.14C409.59 49.81 428.8 60.16 435.17 75.49C436.64 78.97 437.46 82.61 437.46 86.26L437.46 103.16L437.46 125.19L415.19 125.19L415.19 98.36C415.19 96.32 413.78 94.67 412.03 94.67C410.28 94.67 408.86 96.32 408.86 98.36L408.86 125.19L397.42 125.19Z" />
		<path id="&lt;Path&gt;" class="shp1" d="M176.53 61.77C181.51 58.85 187.28 57.18 193.43 57.18C211.98 57.18 227.04 72.36 227.27 91.19L199.5 91.19C197.46 91.19 195.81 92.6 195.81 94.35C195.81 96.1 197.46 97.52 199.5 97.52L226.79 97.52C224.04 113.75 210.15 126.09 193.43 126.09C184.89 126.09 177.08 122.87 171.13 117.55C173.77 116.17 176.07 114.45 178.05 112.47C178.1 112.42 179.22 111.33 179.3 111.25C181.76 108.55 183.72 105.41 185.1 102.01C188.73 93.17 188.73 82.86 185.1 74.03C183.23 69.35 180.36 65.1 176.53 61.77Z" />
		<path id="&lt;Compound Path&gt;" fill-rule="evenodd" class="shp1" d="M152.88 117.47L143.06 117.47L143.06 125.58L120.03 125.58L120.03 57.49L152.88 57.49C166.36 57.49 175.35 65.19 179.36 74.97C182.71 82.92 182.71 92.2 179.36 100.15C178.09 103.21 176.27 106.03 174 108.47L172.85 109.56C168.2 114.13 161.54 117.14 152.88 117.47ZM156.14 93.51C157.61 92.6 158.75 90.94 158.75 88.95C158.89 85.53 156.57 83.69 154.01 83.07L152.38 82.83L143.16 82.83L143.16 94.42L153.03 94.42C154.1 94.42 155.16 94.09 156.14 93.51Z" />
		<path id="&lt;Path&gt;" class="shp1" d="M268.95 78.14C269.77 80.54 270.18 83.03 270.26 85.43L270.26 90.65L270.26 116.08L270.26 125.19L248.3 125.26L248.3 98.36C248.3 96.32 246.88 94.67 245.13 94.67C243.38 94.67 241.96 96.32 241.96 98.36L241.96 125.27L212.92 125.36C213.42 125.19 213.91 124.98 214.39 124.78C216.05 124.09 229.73 116.52 232.78 98.18C234.31 88.7 232.53 78.21 225.97 68.94L225.15 67.78C224.5 66.87 223.76 65.96 223.03 65.05C223.76 64.47 224.42 63.89 225.15 63.31C226.73 62.14 228.29 61.15 229.85 60.32C230.88 59.77 231.9 59.28 232.91 58.84C241.78 55.36 250.2 57.14 256.78 61.65C262.64 65.69 266.97 71.74 268.95 78.14Z" />
		<path id="&lt;Path&gt;" class="shp1" d="M322.29 95.08C324.66 95.86 327.18 96.3 329.8 96.3C335.68 96.3 341.09 94.64 345.37 91.75L345.37 125.19L322.29 125.19L322.29 106.23L322.29 95.08Z" />
		<path id="&lt;Path&gt;" class="shp1" d="M315.87 64.81C319.02 60.29 324.47 57.31 330.66 57.31C340.41 57.31 348.58 64.7 348.58 73.83C348.58 82.95 340.41 90.35 330.66 90.35C327.63 90.35 324.78 89.63 322.29 88.38L322.29 84.97C322.29 80.39 321.26 75.8 319.41 71.42C318.45 69.11 317.26 66.9 315.87 64.81Z" />
		<path id="&lt;Path&gt;" class="shp1" d="M276.25 125.19L276.25 119.81L276.25 94.38L276.25 88.24C276.5 81.53 275.35 73.91 270.53 67.29C270.12 66.54 269.55 65.88 269.06 65.21C269.55 64.8 269.96 64.47 270.37 64.14C288.43 49.81 307.63 60.16 314.01 75.49C315.48 78.97 316.29 82.61 316.29 86.26L316.29 103.16L316.29 125.19L294.03 125.19L294.03 98.36C294.03 96.32 292.61 94.67 290.86 94.67C289.11 94.67 287.7 96.32 287.7 98.36L287.7 125.19L276.25 125.19Z" />
		<path id="&lt;Compound Path&gt;" fill-rule="evenodd" class="shp1" d="M564.33 73.15L564.33 109.95L532.27 109.95L529.11 109.95C493.82 110.67 470.89 119.51 460.95 136.21C457.85 141.79 450.63 144.94 445.08 145.17L445 145.17L444.92 145.17L112.39 145.17L112.33 145.17L112.27 145.16C93.32 144.57 73.98 117.52 73.95 91.55C73.98 65.49 93.09 38.43 111.82 37.93L111.87 37.93L111.92 37.93L444.92 37.93L445 37.93L445.08 37.93C450.63 38.16 457.85 41.31 460.95 46.88C470.86 63.55 493.77 72.38 528.95 73.14L532.27 73.15L564.33 73.15ZM560.43 106.05L560.43 93.42L466.39 93.42C465.53 96.6 462.62 98.94 459.16 98.94C455.02 98.94 451.66 95.58 451.66 91.44C451.66 87.3 455.02 83.94 459.16 83.94C462.62 83.94 465.53 86.28 466.39 89.47L560.43 89.47L560.43 77.05L532.27 77.05L528.94 77.04C505.48 76.54 471.49 72.31 457.57 48.82C455.38 44.84 449.68 42.03 444.92 41.83L111.92 41.83C94.96 42.28 77.88 68.15 77.85 91.56C77.88 114.92 95.46 140.74 112.39 141.27L444.92 141.27C449.68 141.07 455.38 138.26 457.57 134.27C471.51 110.76 505.56 106.53 529.03 106.05L532.27 106.05L560.43 106.05Z" />
	</g>
</svg>