<svg version="1.2" baseProfile="tiny-ps" xmlns="http://www.w3.org/2000/svg" viewBox="0 0 643 265" width="643" height="265">
	<title>SALKA_logo_final-ai</title>
	<style>
		tspan { white-space:pre }
		.shp0 { fill: #000000 } 
		.shp1 { fill: #da2128 } 
	</style>
	<g id="Layer 1">
		<g id="&lt;Group&gt;">
			<path id="&lt;Path&gt;" class="shp0" d="M1038.75 326.45C1039.67 325.12 1040.49 323.58 1041.42 322.24C1042.34 320.91 1043.78 320.5 1044.91 321.42C1045.53 321.93 1053.43 328.51 1061.34 328.51C1068.43 328.51 1072.95 324.19 1072.95 318.96C1072.95 312.79 1067.61 308.89 1057.44 304.68C1046.96 300.27 1038.75 294.82 1038.75 282.91C1038.75 274.9 1044.91 263.91 1061.24 263.91C1071.51 263.91 1079.21 269.25 1080.24 269.97C1081.06 270.48 1081.88 271.92 1080.85 273.46C1080.03 274.69 1079.11 276.13 1078.29 277.36C1077.46 278.7 1076.13 279.31 1074.69 278.39C1073.97 277.98 1066.78 273.26 1060.83 273.26C1052.2 273.26 1049.22 278.7 1049.22 282.5C1049.22 288.35 1053.74 291.95 1062.26 295.44C1074.18 300.27 1084.34 305.91 1084.34 318.44C1084.34 329.12 1074.79 337.85 1061.44 337.85C1048.91 337.85 1041.01 331.28 1039.36 329.74C1038.44 328.92 1037.72 328.2 1038.75 326.45Z" />
			<path id="&lt;Compound Path&gt;" fill-rule="evenodd" class="shp0" d="M1088.86 334.16L1120.39 265.04C1120.7 264.42 1121.62 263.91 1122.14 263.91L1123.16 263.91C1123.68 263.91 1124.6 264.42 1124.91 265.04L1156.23 334.16C1156.85 335.49 1156.03 336.83 1154.49 336.83L1148.02 336.83C1146.78 336.83 1146.07 336.21 1145.65 335.29L1139.29 321.22L1105.7 321.22C1103.65 325.94 1101.49 330.56 1099.44 335.29C1099.13 336 1098.31 336.83 1097.08 336.83L1090.61 336.83C1089.07 336.83 1088.25 335.49 1088.86 334.16ZM1135.38 312.38L1122.75 284.25L1122.24 284.25L1109.71 312.38L1135.38 312.38Z" />
			<path id="&lt;Path&gt;" class="shp0" d="M1166.5 266.89C1166.5 265.86 1167.32 264.94 1168.45 264.94L1175.23 264.94C1176.26 264.94 1177.18 265.86 1177.18 266.89L1177.18 327.28L1205.01 327.28C1206.14 327.28 1206.96 328.2 1206.96 329.23L1206.96 334.88C1206.96 335.9 1206.14 336.83 1205.01 336.83L1168.45 336.83C1167.32 336.83 1166.5 335.9 1166.5 334.88L1166.5 266.89Z" />
			<path id="&lt;Path&gt;" class="shp0" d="M1217.75 267.4C1217.75 266.07 1218.77 264.94 1220.21 264.94L1226.17 264.94C1227.5 264.94 1228.63 266.07 1228.63 267.4L1228.63 295.85L1257.59 265.96C1258 265.45 1258.72 264.94 1259.54 264.94L1267.25 264.94C1269.09 264.94 1270.12 267.09 1268.68 268.63L1239 298.83L1270.43 333.44C1271.25 334.46 1270.74 336.83 1268.58 336.83L1260.37 336.83C1259.34 336.83 1258.72 336.42 1258.52 336.11L1228.63 302.42L1228.63 334.36C1228.63 335.7 1227.5 336.83 1226.17 336.83L1220.21 336.83C1218.77 336.83 1217.75 335.7 1217.75 334.36L1217.75 267.4Z" />
			<path id="&lt;Compound Path&gt;" fill-rule="evenodd" class="shp0" d="M1273.41 334.16L1304.93 265.04C1305.24 264.42 1306.17 263.91 1306.68 263.91L1307.71 263.91C1308.22 263.91 1309.15 264.42 1309.45 265.04L1340.78 334.16C1341.39 335.49 1340.57 336.83 1339.03 336.83L1332.56 336.83C1331.33 336.83 1330.61 336.21 1330.2 335.29L1323.83 321.22L1290.25 321.22C1288.2 325.94 1286.04 330.56 1283.98 335.29C1283.68 336 1282.85 336.83 1281.62 336.83L1275.15 336.83C1273.61 336.83 1272.79 335.49 1273.41 334.16ZM1319.93 312.38L1307.3 284.25L1306.78 284.25L1294.25 312.38L1319.93 312.38Z" />
			<path id="&lt;Path&gt;" class="shp1" d="M1267.28 67.59L1197.12 108.99L1197.12 192.06C1197.12 195.66 1194.21 197.88 1190.61 197.88C1187.02 197.88 1184.11 195.66 1184.11 192.06L1184.11 109.12L1113.93 67.59C1110.84 65.76 1109.82 61.77 1111.65 58.68C1113.48 55.59 1117.47 54.56 1120.56 56.39L1190.5 97.79L1260.67 56.39C1263.77 54.56 1267.76 55.59 1269.58 58.68C1271.41 61.78 1270.38 65.77 1267.28 67.59Z" />
		</g>
		<g id="&lt;Group&gt;">
			<g id="&lt;Group&gt;">
				<path id="&lt;Path&gt;" class="shp0" d="M228.85 165.12C229.96 163.52 230.95 161.67 232.06 160.06C233.17 158.46 234.9 157.96 236.25 159.08C236.99 159.69 246.5 167.59 256 167.59C264.51 167.59 269.94 162.41 269.94 156.11C269.94 148.71 263.53 144.02 251.31 138.96C238.72 133.65 228.85 127.11 228.85 112.8C228.85 103.17 236.25 89.97 255.88 89.97C268.22 89.97 277.47 96.38 278.71 97.25C279.69 97.86 280.68 99.59 279.45 101.44C278.46 102.92 277.35 104.65 276.36 106.13C275.37 107.74 273.77 108.48 272.04 107.37C271.18 106.87 262.54 101.2 255.38 101.2C245.02 101.2 241.44 107.74 241.44 112.3C241.44 119.34 246.87 123.66 257.11 127.85C271.42 133.65 283.64 140.44 283.64 155.5C283.64 168.33 272.17 178.82 256.12 178.82C241.07 178.82 231.56 170.92 229.59 169.07C228.48 168.08 227.61 167.22 228.85 165.12Z" />
				<path id="&lt;Compound Path&gt;" fill-rule="evenodd" class="shp0" d="M289.07 174.38L326.96 91.32C327.33 90.58 328.44 89.97 329.06 89.97L330.29 89.97C330.91 89.97 332.02 90.58 332.39 91.32L370.03 174.38C370.77 175.98 369.78 177.59 367.93 177.59L360.15 177.59C358.67 177.59 357.81 176.85 357.32 175.74L349.67 158.83L309.31 158.83C306.84 164.51 304.25 170.06 301.78 175.74C301.41 176.6 300.42 177.59 298.94 177.59L291.17 177.59C289.32 177.59 288.33 175.98 289.07 174.38ZM344.97 148.22L329.8 114.4L329.18 114.4L314.12 148.22L344.97 148.22Z" />
				<path id="&lt;Path&gt;" class="shp0" d="M382.37 93.55C382.37 92.31 383.35 91.2 384.71 91.2L392.86 91.2C394.09 91.2 395.2 92.31 395.2 93.55L395.2 166.11L428.64 166.11C430 166.11 430.99 167.22 430.99 168.45L430.99 175.24C430.99 176.48 430 177.59 428.64 177.59L384.71 177.59C383.35 177.59 382.37 176.48 382.37 175.24L382.37 93.55Z" />
				<path id="&lt;Path&gt;" class="shp0" d="M443.95 94.16C443.95 92.56 445.18 91.2 446.91 91.2L454.07 91.2C455.67 91.2 457.03 92.56 457.03 94.16L457.03 128.35L491.83 92.44C492.32 91.82 493.19 91.2 494.17 91.2L503.43 91.2C505.65 91.2 506.89 93.79 505.16 95.64L469.49 131.93L507.26 173.51C508.24 174.75 507.63 177.59 505.03 177.59L495.16 177.59C493.93 177.59 493.19 177.09 492.94 176.72L457.03 136.24L457.03 174.62C457.03 176.23 455.67 177.59 454.07 177.59L446.91 177.59C445.18 177.59 443.95 176.23 443.95 174.62L443.95 94.16Z" />
				<path id="&lt;Compound Path&gt;" fill-rule="evenodd" class="shp0" d="M510.83 174.38L548.72 91.32C549.09 90.58 550.2 89.97 550.82 89.97L552.05 89.97C552.67 89.97 553.78 90.58 554.15 91.32L591.79 174.38C592.53 175.98 591.54 177.59 589.69 177.59L581.92 177.59C580.44 177.59 579.57 176.85 579.08 175.74L571.43 158.83L531.07 158.83C528.6 164.51 526.01 170.06 523.54 175.74C523.17 176.6 522.19 177.59 520.71 177.59L512.93 177.59C511.08 177.59 510.09 175.98 510.83 174.38ZM566.74 148.22L551.56 114.4L550.94 114.4L535.89 148.22L566.74 148.22Z" />
			</g>
			<path id="&lt;Path&gt;" class="shp1" d="M199.28 72.3L129.12 113.7L129.12 196.77C129.12 200.37 126.21 202.59 122.61 202.59C119.02 202.59 116.11 200.37 116.11 196.77L116.11 113.83L45.93 72.3C42.84 70.47 41.82 66.48 43.65 63.39C45.48 60.3 49.47 59.27 52.56 61.1L122.5 102.5L192.67 61.1C195.77 59.27 199.76 60.3 201.58 63.39C203.41 66.49 202.38 70.48 199.28 72.3Z" />
		</g>
		<g id="&lt;Group&gt;">
			<path id="&lt;Path&gt;" class="shp1" d="M-494.72 67.59L-564.88 108.99L-564.88 192.06C-564.88 195.66 -567.79 197.88 -571.39 197.88C-574.98 197.88 -577.89 195.66 -577.89 192.06L-577.89 109.12L-648.07 67.59C-651.16 65.76 -652.18 61.77 -650.35 58.68C-648.52 55.59 -644.53 54.56 -641.44 56.39L-571.5 97.79L-501.33 56.39C-498.23 54.56 -494.24 55.59 -492.42 58.68C-490.59 61.78 -491.62 65.77 -494.72 67.59Z" />
		</g>
		<g id="&lt;Group&gt;">
			<path id="&lt;Path&gt;" class="shp0" d="M1873.28 67.59L1803.12 108.99L1803.12 192.06C1803.12 195.66 1800.21 197.88 1796.61 197.88C1793.02 197.88 1790.11 195.66 1790.11 192.06L1790.11 109.12L1719.93 67.59C1716.84 65.76 1715.82 61.77 1717.65 58.68C1719.48 55.59 1723.47 54.56 1726.56 56.39L1796.5 97.79L1866.67 56.39C1869.77 54.56 1873.76 55.59 1875.58 58.68C1877.41 61.78 1876.38 65.77 1873.28 67.59Z" />
		</g>
	</g>
</svg>