<?xml version="1.0" encoding="UTF-8"?>
<!-- Created with Inkscape (http://www.inkscape.org/) -->
<svg width="512" height="512" version="1.1" viewBox="0 0 512 512" xmlns="http://www.w3.org/2000/svg">
 <g transform="matrix(.81923 0 0 .81923 -4.0148 170.36)">
  <path class="shp0" d="m228.85 165.12c1.11-1.6 2.1-3.45 3.21-5.06 1.11-1.6 2.84-2.1 4.19-0.98 0.74 0.61 10.25 8.51 19.75 8.51 8.51 0 13.94-5.18 13.94-11.48 0-7.4-6.41-12.09-18.63-17.15-12.59-5.31-22.46-11.85-22.46-26.16 0-9.63 7.4-22.83 27.03-22.83 12.34 0 21.59 6.41 22.83 7.28 0.98 0.61 1.97 2.34 0.74 4.19-0.99 1.48-2.1 3.21-3.09 4.69-0.99 1.61-2.59 2.35-4.32 1.24-0.86-0.5-9.5-6.17-16.66-6.17-10.36 0-13.94 6.54-13.94 11.1 0 7.04 5.43 11.36 15.67 15.55 14.31 5.8 26.53 12.59 26.53 27.65 0 12.83-11.47 23.32-27.52 23.32-15.05 0-24.56-7.9-26.53-9.75-1.11-0.99-1.98-1.85-0.74-3.95z"/>
  <path class="shp0" d="m289.07 174.38 37.89-83.06c0.37-0.74 1.48-1.35 2.1-1.35h1.23c0.62 0 1.73 0.61 2.1 1.35l37.64 83.06c0.74 1.6-0.25 3.21-2.1 3.21h-7.78c-1.48 0-2.34-0.74-2.83-1.85l-7.65-16.91h-40.36c-2.47 5.68-5.06 11.23-7.53 16.91-0.37 0.86-1.36 1.85-2.84 1.85h-7.77c-1.85 0-2.84-1.61-2.1-3.21zm55.9-26.16-15.17-33.82h-0.62l-15.06 33.82z" fill-rule="evenodd"/>
  <path class="shp0" d="m382.37 93.55c0-1.24 0.98-2.35 2.34-2.35h8.15c1.23 0 2.34 1.11 2.34 2.35v72.56h33.44c1.36 0 2.35 1.11 2.35 2.34v6.79c0 1.24-0.99 2.35-2.35 2.35h-43.93c-1.36 0-2.34-1.11-2.34-2.35z"/>
  <path class="shp0" d="m443.95 94.16c0-1.6 1.23-2.96 2.96-2.96h7.16c1.6 0 2.96 1.36 2.96 2.96v34.19l34.8-35.91c0.49-0.62 1.36-1.24 2.34-1.24h9.26c2.22 0 3.46 2.59 1.73 4.44l-35.67 36.29 37.77 41.58c0.98 1.24 0.37 4.08-2.23 4.08h-9.87c-1.23 0-1.97-0.5-2.22-0.87l-35.91-40.48v38.38c0 1.61-1.36 2.97-2.96 2.97h-7.16c-1.73 0-2.96-1.36-2.96-2.97z"/>
  <path class="shp0" d="m510.83 174.38 37.89-83.06c0.37-0.74 1.48-1.35 2.1-1.35h1.23c0.62 0 1.73 0.61 2.1 1.35l37.64 83.06c0.74 1.6-0.25 3.21-2.1 3.21h-7.77c-1.48 0-2.35-0.74-2.84-1.85l-7.65-16.91h-40.36c-2.47 5.68-5.06 11.23-7.53 16.91-0.37 0.86-1.35 1.85-2.83 1.85h-7.78c-1.85 0-2.84-1.61-2.1-3.21zm55.91-26.16-15.18-33.82h-0.62l-15.05 33.82z" fill-rule="evenodd"/>
  <path class="shp1" d="m199.28 72.3-70.16 41.4v83.07c0 3.6-2.91 5.82-6.51 5.82-3.59 0-6.5-2.22-6.5-5.82v-82.94l-70.18-41.53c-3.09-1.83-4.11-5.82-2.28-8.91s5.82-4.12 8.91-2.29l69.94 41.4 70.17-41.4c3.1-1.83 7.09-0.8 8.91 2.29 1.83 3.1 0.8 7.09-2.3 8.91z"/>
 </g>
 <style>tspan { white-space:pre }
		.shp0 { fill: #000000 } 
		.shp1 { fill: #da2128 }</style>
</svg>
