<svg version="1.2" baseProfile="tiny-ps" xmlns="http://www.w3.org/2000/svg" viewBox="0 0 400 283" width="400" height="283">
	<title>Storytel_PrimaryLogo_RGB_Sangria-ai</title>
	<style>
		tspan { white-space:pre }
		.shp0 { fill: #48001e } 
		.shp1 { fill: #ff5c28 } 
	</style>
	<g id="Lager 1">
		<g id="&lt;Group&gt;">
			<g id="&lt;Group&gt;">
				<g id="&lt;Group&gt;">
					<g id="&lt;Group&gt;">
						<g id="&lt;Group&gt;">
							<path id="&lt;Compound Path&gt;" class="shp0" d="M65.46 193.9C67.78 195.3 72.58 196.88 76.3 196.88C80.1 196.88 81.67 195.64 81.67 193.57C81.67 191.41 80.44 190.42 75.8 188.85C67.37 186.03 64.14 181.48 64.23 176.67C64.23 169.06 70.68 163.35 80.68 163.35C85.39 163.35 89.53 164.51 92.01 165.75L89.86 174.44C88.04 173.45 84.49 172.12 81.09 172.12C78.04 172.12 76.3 173.36 76.3 175.35C76.3 177.34 77.87 178.33 82.83 180.07C90.52 182.72 93.67 186.69 93.75 192.57C93.75 200.19 87.88 205.73 76.3 205.73C71.01 205.73 66.29 204.5 63.24 202.84L65.46 193.9Z" />
							<path id="&lt;Compound Path&gt;" class="shp0" d="M113.57 153.41L113.57 164.34L122.58 164.34L122.58 173.61L113.57 173.61L113.57 188.26C113.57 193.15 114.81 195.39 118.53 195.39C120.26 195.39 121.09 195.3 122.25 195.05L122.33 204.58C120.76 205.16 117.7 205.65 114.22 205.65C110.17 205.65 106.78 204.25 104.72 202.18C102.4 199.77 101.24 195.89 101.24 190.17L101.24 173.61L101.24 164.34L101.24 156.81L113.57 153.41Z" />
							<path id="&lt;Compound Path&gt;" fill-rule="evenodd" class="shp0" d="M169.38 184.13C169.38 198.95 158.88 205.73 148.05 205.73C136.22 205.73 127.13 197.95 127.13 184.87C127.13 171.71 135.73 163.35 148.8 163.35C161.11 163.35 169.38 171.87 169.38 184.13ZM140.11 184.54C140.11 191.49 143.01 196.71 148.38 196.71C153.34 196.71 156.4 191.83 156.4 184.46C156.4 178.5 154.09 172.37 148.38 172.37C142.43 172.37 140.11 178.58 140.11 184.54Z" />
							<path id="&lt;Compound Path&gt;" class="shp0" d="M177.16 177.67C177.16 171.71 177.08 167.82 176.83 164.34L187.58 164.34L188.07 171.79L188.4 171.79C190.47 165.83 195.35 163.35 199.32 163.35C200.48 163.35 201.06 163.43 201.97 163.59L201.97 175.43C200.98 175.27 199.98 175.1 198.58 175.1C193.94 175.1 190.8 177.59 189.98 181.48C189.81 182.31 189.73 183.3 189.73 184.29L189.73 204.82L177.16 204.82L177.16 177.67Z" />
							<path id="&lt;Compound Path&gt;" class="shp0" d="M219.5 164.34L225.53 184.29C226.2 186.61 227.02 189.67 227.52 191.83L227.85 191.83C228.35 189.59 229.01 186.61 229.59 184.21L234.63 164.34L248.02 164.34L238.6 191C232.81 207.14 228.92 213.52 224.38 217.57C220.08 221.38 215.44 222.79 212.3 223.12L209.57 212.52C211.15 212.19 213.13 211.45 215.03 210.37C216.93 209.38 219.09 207.31 220.24 205.32C220.66 204.66 220.9 204 220.9 203.5C220.9 203 220.82 202.42 220.41 201.43L205.52 164.34L219.5 164.34Z" />
							<path id="&lt;Compound Path&gt;" class="shp0" d="M267.38 153.41L267.38 164.34L276.39 164.34L276.39 173.61L267.38 173.61L267.38 188.26C267.38 193.15 268.62 195.39 272.34 195.39C274.08 195.39 274.91 195.3 276.06 195.05L276.14 204.58C274.57 205.16 271.51 205.65 268.04 205.65C263.99 205.65 260.6 204.25 258.53 202.18C256.22 199.77 255.06 195.89 255.06 190.17L255.06 173.61L255.06 164.34L255.06 156.81L267.38 153.41Z" />
							<path id="&lt;Compound Path&gt;" fill-rule="evenodd" class="shp0" d="M292.94 188.6C293.26 193.81 298.48 196.3 304.35 196.3C308.64 196.3 312.12 195.72 315.51 194.56L317.16 203.09C313.03 204.82 307.98 205.65 302.53 205.65C288.8 205.65 280.94 197.71 280.94 185.04C280.94 174.77 287.31 163.43 301.37 163.43C314.43 163.43 319.4 173.61 319.4 183.63C319.4 185.78 319.15 187.69 318.98 188.6L292.94 188.6ZM307.74 179.99C307.74 176.92 306.41 171.79 300.63 171.79C295.33 171.79 293.18 176.67 292.85 179.99L307.74 179.99Z" />
						</g>
					</g>
					<g id="&lt;Group&gt;">
						<path id="&lt;Path&gt;" class="shp0" d="M326.92 204.82L339.49 204.82L339.49 147.98L326.92 151.44L326.92 204.82Z" />
					</g>
				</g>
			</g>
			<path id="&lt;Path&gt;" class="shp1" d="M242.35 99.43C245.89 80.02 234.08 62.66 215.59 56.9C182.76 46.66 159.49 76.78 159.76 107.13C159.97 131.66 165.22 147.97 165.23 147.98C164.99 147.25 171.43 143.85 172.17 143.47C174.69 142.17 177.34 141.12 180.03 140.22C185.56 138.38 191.29 137.22 196.97 135.92C214.74 131.85 233.84 124.18 240.63 105.72C241.4 103.65 241.97 101.54 242.35 99.43Z" />
		</g>
	</g>
</svg>