<?xml version="1.0" encoding="UTF-8"?>
<!-- Created with Inkscape (http://www.inkscape.org/) -->
<svg width="512" height="512" version="1.1" viewBox="0 0 512 512" xmlns="http://www.w3.org/2000/svg">
 <g transform="matrix(1.629 0 0 1.629 -72.015 -8.4096)">
  <g id="&lt;Group&gt;">
   <path id="&lt;Compound Path&gt;" class="shp0" d="m65.46 193.9c2.32 1.4 7.12 2.98 10.84 2.98 3.8 0 5.37-1.24 5.37-3.31 0-2.16-1.23-3.15-5.87-4.72-8.43-2.82-11.66-7.37-11.57-12.18 0-7.61 6.45-13.32 16.45-13.32 4.71 0 8.85 1.16 11.33 2.4l-2.15 8.69c-1.82-0.99-5.37-2.32-8.77-2.32-3.05 0-4.79 1.24-4.79 3.23s1.57 2.98 6.53 4.72c7.69 2.65 10.84 6.62 10.92 12.5 0 7.62-5.87 13.16-17.45 13.16-5.29 0-10.01-1.23-13.06-2.89z"/>
   <path class="shp0" d="m113.57 153.41v10.93h9.01v9.27h-9.01v14.65c0 4.89 1.24 7.13 4.96 7.13 1.73 0 2.56-0.09 3.72-0.34l0.08 9.53c-1.57 0.58-4.63 1.07-8.11 1.07-4.05 0-7.44-1.4-9.5-3.47-2.32-2.41-3.48-6.29-3.48-12.01v-33.36z"/>
   <path class="shp0" d="m169.38 184.13c0 14.82-10.5 21.6-21.33 21.6-11.83 0-20.92-7.78-20.92-20.86 0-13.16 8.6-21.52 21.67-21.52 12.31 0 20.58 8.52 20.58 20.78zm-29.27 0.41c0 6.95 2.9 12.17 8.27 12.17 4.96 0 8.02-4.88 8.02-12.25 0-5.96-2.31-12.09-8.02-12.09-5.95 0-8.27 6.21-8.27 12.17z" fill-rule="evenodd"/>
   <path class="shp0" d="m177.16 177.67c0-5.96-0.08-9.85-0.33-13.33h10.75l0.49 7.45h0.33c2.07-5.96 6.95-8.44 10.92-8.44 1.16 0 1.74 0.08 2.65 0.24v11.84c-0.99-0.16-1.99-0.33-3.39-0.33-4.64 0-7.78 2.49-8.6 6.38-0.17 0.83-0.25 1.82-0.25 2.81v20.53h-12.57z"/>
   <path class="shp0" d="m219.5 164.34 6.03 19.95c0.67 2.32 1.49 5.38 1.99 7.54h0.33c0.5-2.24 1.16-5.22 1.74-7.62l5.04-19.87h13.39l-9.42 26.66c-5.79 16.14-9.68 22.52-14.22 26.57-4.3 3.81-8.94 5.22-12.08 5.55l-2.73-10.6c1.58-0.33 3.56-1.07 5.46-2.15 1.9-0.99 4.06-3.06 5.21-5.05 0.42-0.66 0.66-1.32 0.66-1.82s-0.08-1.08-0.49-2.07l-14.89-37.09z"/>
   <path class="shp0" d="m267.38 153.41v10.93h9.01v9.27h-9.01v14.65c0 4.89 1.24 7.13 4.96 7.13 1.74 0 2.57-0.09 3.72-0.34l0.08 9.53c-1.57 0.58-4.63 1.07-8.1 1.07-4.05 0-7.44-1.4-9.51-3.47-2.31-2.41-3.47-6.29-3.47-12.01v-33.36z"/>
   <path class="shp0" d="m292.94 188.6c0.32 5.21 5.54 7.7 11.41 7.7 4.29 0 7.77-0.58 11.16-1.74l1.65 8.53c-4.13 1.73-9.18 2.56-14.63 2.56-13.73 0-21.59-7.94-21.59-20.61 0-10.27 6.37-21.61 20.43-21.61 13.06 0 18.03 10.18 18.03 20.2 0 2.15-0.25 4.06-0.42 4.97zm14.8-8.61c0-3.07-1.33-8.2-7.11-8.2-5.3 0-7.45 4.88-7.78 8.2z" fill-rule="evenodd"/>
  </g>
  <path id="&lt;Path&gt;" class="shp0" d="m326.92 204.82h12.57v-56.84l-12.57 3.46z"/>
  <path class="shp1" d="m242.35 99.43c3.54-19.41-8.27-36.77-26.76-42.53-32.83-10.24-56.1 19.88-55.83 50.23 0.21 24.53 5.46 40.84 5.47 40.85-0.24-0.73 6.2-4.13 6.94-4.51 2.52-1.3 5.17-2.35 7.86-3.25 5.53-1.84 11.26-3 16.94-4.3 17.77-4.07 36.87-11.74 43.66-30.2 0.77-2.07 1.34-4.18 1.72-6.29z"/>
 </g>
 <style>tspan { white-space:pre }
		.shp0 { fill: #48001e } 
		.shp1 { fill: #ff5c28 }</style>
</svg>
